


<svg width="296" height="296" viewBox="0 0 296 296" fill="none" xmlns="http://www.w3.org/2000/svg">
<rect width="296" height="296" fill="#1B202B"/>
<path fill-rule="evenodd" clip-rule="evenodd" d="M251.704 222.232C297.031 181.79 238.51 158.713 249.296 124.537C260.081 90.36 287.38 38.9626 185.52 48.0179C83.6604 57.0731 -0.904751 159.951 35.4088 208.37C71.7223 256.788 206.377 262.675 251.704 222.232Z" fill="#A7DACE"/>
<path fill-rule="evenodd" clip-rule="evenodd" d="M167.615 139.321C170.557 140.75 173.499 142.179 176.442 143.607C181.077 145.858 185.793 148.163 189.53 151.703C193.268 155.243 195.942 160.278 195.381 165.386C194.723 171.389 189.961 176.015 185.49 180.092C179.662 185.408 173.834 190.724 168.006 196.04C165.452 198.37 162.655 201.687 164.03 204.853C167.603 213.075 170.838 222.429 167.59 230.784C166.673 233.143 164.774 235.578 162.238 235.462C160.351 235.375 158.854 233.897 157.64 232.455C152.815 226.721 149.235 219.954 147.215 212.747C144.628 203.52 144.944 192.705 151.239 185.463C156.13 179.835 164.559 176.051 165.08 168.624C155.55 160.561 141.764 157.813 129.855 161.603C117.946 165.393 108.31 175.593 105.236 187.668C103.561 194.243 107.309 201.012 111.92 206.003C116.531 210.995 122.187 215.133 125.734 220.924C132.869 232.568 129.754 247.479 126.416 260.711C125.257 265.302 118.266 266.069 114.786 262.845C111.306 259.622 110.706 254.357 111.075 249.637C111.444 244.916 112.55 240.145 111.622 235.502C109.228 223.518 95.1491 218.047 88.25 207.945C83.0214 200.289 82.3011 190.272 84.2371 181.215C86.173 172.157 90.5023 163.813 94.7854 155.594C86.8149 143.436 83.4688 128.345 85.5566 113.973C86.6101 106.721 77.0305 101.141 78.028 93.8814C78.8242 88.0873 85.6463 85.4711 91.4129 84.381C102.388 82.3063 113.612 81.5393 124.769 82.1016C127.263 82.2273 128.361 78.6164 127.112 76.4614C125.862 74.3063 123.423 73.1969 121.403 71.7335C117.332 68.7854 114.775 64.1372 113.365 59.3242C111.555 53.1476 111.552 46.1345 114.913 40.6402C115.753 39.2671 117.197 37.232 119.394 39.2041C120.053 35.7618 127.052 32.4533 131.526 34.3013C134.208 35.4089 137.066 33.1375 138.771 30.7957C140.475 28.4539 142.124 25.6262 144.956 24.9907C150.028 23.8529 153.275 30.6149 152.691 35.7618C152.107 40.9087 149.835 46.3461 152.066 51.0248C152.914 52.8037 154.383 54.344 154.664 56.2933C154.909 57.9843 154.471 57.3249 153.519 61.2182C152.567 65.1115 150.273 66.3619 149.327 68.5158C147.872 71.831 148.09 74.743 145.049 77.6771C144.537 78.1707 145.579 79.3022 145.211 80.1406C152.702 80.2476 158.392 86.4713 164.189 91.1983C171.399 97.0769 180.22 101.189 189.501 101.987C198.783 102.785 208.496 100.071 215.426 93.8676C218.139 91.4391 224.61 94.6117 225.083 91.0085C225.173 90.075 224.925 89.6731 224.038 89.4435C223.578 89.3246 222.493 89.5717 222.156 89.1396C221.168 87.8728 226.922 85.6893 226.679 87.4286C226.617 87.874 226.355 88.2031 226.388 88.4919C226.485 89.3308 226.964 89.5896 227.704 89.7377C229.264 89.8347 231.498 88.7692 232.43 87.4286C233.055 86.5305 232.811 86.2923 232.321 86.2527C231.52 86.1878 230.06 86.6538 230.658 85.6344C231.394 84.381 233.29 83.1924 235.093 84.2836C235.482 84.5192 235.345 84.9765 235.146 85.4258C234.779 86.2499 234.201 87.047 236.272 86.3989C239.471 85.3975 239.655 85.5851 240.481 85.8299C241.308 86.0746 242.522 87.5274 243.299 88.8843C244.897 91.6768 246.537 94.6057 246.687 97.8171C246.836 101.029 244.977 104.58 241.816 105.222C241.787 106.156 242.246 107.037 242.942 107.656C243.7 108.331 245.649 107.92 245.322 108.523C244.258 110.482 241.667 110.984 239.627 110.299C239.067 110.111 240.359 109.146 240.481 108.478C240.677 107.408 240.455 106.256 239.8 105.382C237.955 106.16 236.111 106.938 234.266 107.716C234.801 108.398 234.557 109.208 235.093 109.89C235.598 110.534 236.896 110.371 237.113 111.285C237.35 112.279 235.434 112.696 234.444 112.789C233.359 112.891 231.671 113.002 231.166 112.279C230.591 111.457 232.391 111.194 232.475 110.334C232.565 109.395 232.221 108.392 231.394 107.937C229.809 107.067 227.536 108.669 227.832 110.448C228.577 114.928 226.713 119.746 223.144 122.57C219.574 125.394 214.442 126.109 210.231 124.37C206.424 122.798 202.207 124.821 198.268 126.026C189.336 128.759 179.145 127.016 171.639 121.472C171.206 127.67 170.015 134.384 166.039 138.954C166.683 139.321 166.352 139.321 167.615 139.321Z" fill="#1B202B"/>
<ellipse cx="127.887" cy="70.0534" rx="2.17066" ry="2.16352" fill="#FFB61D"/>
<ellipse cx="143.462" cy="65.712" rx="2.17067" ry="2.17066" fill="#FFB61D"/>
<path fill-rule="evenodd" clip-rule="evenodd" d="M156.139 162.4C155.162 161.962 154.183 161.524 153.198 161.096C145.989 157.969 137.343 155.72 130.541 159.65C129.502 153.038 136.616 147.988 143.163 146.492C144.959 146.082 146.811 145.791 148.664 145.5C153.567 144.73 158.471 143.96 162.32 140.979C168.035 136.554 169.558 128.666 170.061 121.472C177.567 127.016 187.758 128.759 196.689 126.026C197.371 125.818 198.061 125.584 198.756 125.35C202.076 124.228 205.505 123.07 208.653 124.37C212.864 126.109 217.996 125.394 221.566 122.57C225.135 119.746 226.998 114.928 226.253 110.448C225.958 108.669 228.231 107.067 229.816 107.937C230.643 108.391 230.987 109.395 230.896 110.334C230.859 110.719 230.478 110.984 230.12 111.234C229.678 111.541 229.27 111.825 229.588 112.279C230.093 113.002 231.781 112.891 232.866 112.789C233.856 112.696 235.772 112.279 235.535 111.285C235.411 110.761 234.931 110.591 234.45 110.42C234.091 110.293 233.731 110.165 233.515 109.89C233.247 109.549 233.174 109.176 233.101 108.803C233.028 108.43 232.955 108.057 232.688 107.716L238.222 105.382C238.876 106.256 239.099 107.408 238.903 108.478C238.851 108.765 238.582 109.107 238.337 109.419C238.012 109.832 237.73 110.191 238.049 110.299C240.088 110.984 242.679 110.482 243.743 108.523C243.91 108.216 243.488 108.172 242.933 108.113C242.396 108.057 241.736 107.988 241.364 107.656C240.668 107.037 240.209 106.156 240.237 105.222C243.399 104.58 245.258 101.028 245.109 97.8171C244.959 94.6056 243.319 91.6768 241.72 88.8843C240.944 87.5273 239.73 86.0745 238.903 85.8298C238.852 85.8146 238.803 85.7996 238.756 85.7851C238.042 85.5663 237.694 85.4597 234.694 86.3988C232.835 86.9806 233.111 86.3979 233.451 85.6764C233.49 85.5941 233.53 85.5101 233.567 85.4257C233.767 84.9764 233.904 84.5191 233.515 84.2835C231.711 83.1923 229.816 84.3809 229.08 85.6343C228.641 86.3829 229.312 86.3305 230.016 86.2755C230.271 86.2556 230.53 86.2354 230.743 86.2526C231.233 86.2923 231.477 86.5305 230.852 87.4286C229.92 88.7691 227.685 89.8346 226.126 89.7376C225.386 89.5895 224.907 89.3308 224.81 88.4918C224.793 88.3383 224.858 88.1734 224.933 87.9857C224.999 87.8203 225.072 87.6372 225.101 87.4286C225.344 85.6893 219.589 87.8727 220.577 89.1395C220.797 89.4211 221.335 89.4143 221.81 89.4083C222.064 89.405 222.3 89.402 222.46 89.4435C223.347 89.6731 223.595 90.0749 223.504 91.0084C223.246 92.976 221.2 92.9231 218.953 92.8651C217.085 92.8169 215.079 92.7651 213.847 93.8675C206.917 100.071 197.205 102.785 187.923 101.987C178.641 101.189 169.821 97.0769 162.611 91.1983C161.616 90.3869 160.624 89.5315 159.626 88.6704C154.808 84.515 149.838 80.2292 143.633 80.1405C143.815 79.7258 143.652 79.2393 143.503 78.7938C143.351 78.3388 143.212 77.9264 143.471 77.677C145.073 76.1317 145.891 73.1213 146.6 70.5142C147.237 68.1713 147.785 66.1541 148.734 65.8189C150.633 65.1482 151.19 63.4743 151.832 61.5434C151.868 61.4357 151.904 61.3273 151.941 61.2182C152.16 60.5646 152.355 60.0368 152.522 59.5872C153.032 58.2118 153.27 57.5676 153.086 56.2932C152.903 55.0222 152.214 53.9251 151.522 52.8224C151.153 52.2339 150.783 51.6438 150.488 51.0248C148.865 47.621 149.625 43.8157 150.385 40.0128C150.67 38.5884 150.954 37.1643 151.113 35.7618C151.697 30.6149 148.449 23.8529 143.378 24.9907C140.906 25.5451 139.336 27.7688 137.844 29.8823C137.626 30.1909 137.41 30.4972 137.193 30.7956C135.488 33.1374 132.63 35.4088 129.948 34.3012C125.474 32.4532 118.475 35.7618 117.816 39.2041C115.619 37.2319 114.175 39.267 113.335 40.6401C109.974 46.1344 109.977 53.1476 111.787 59.3242C113.197 64.1371 115.754 68.7853 119.825 71.7334C120.342 72.1082 120.887 72.4598 121.432 72.8117C123.016 73.8337 124.604 74.8582 125.534 76.4613C126.783 78.6164 125.685 82.2272 123.191 82.1015C112.034 81.5392 100.81 82.3062 89.8347 84.381C84.0682 85.471 77.2461 88.0872 76.4499 93.8813C75.9522 97.5033 78.0874 100.707 80.2213 103.909C82.3645 107.125 84.5064 110.339 83.9785 113.972C81.8906 128.345 85.2368 143.436 93.2073 155.594C88.9242 163.813 84.5949 172.157 82.6589 181.214C80.723 190.272 81.4433 200.289 86.6719 207.945C89.3966 211.935 93.2413 215.202 97.0437 218.434C102.869 223.384 108.596 228.251 110.044 235.502C110.725 238.91 110.31 242.388 109.895 245.864C109.745 247.123 109.595 248.382 109.497 249.637C109.128 254.357 109.728 259.622 113.208 262.845C115.195 264.686 118.327 265.225 120.864 264.495C120.842 264.883 120.82 265.244 120.799 265.584C120.683 267.435 120.608 268.65 120.933 270.089C121.018 270.464 121.156 270.891 121.516 271.028C122.234 271.3 122.713 270.204 122.664 269.461C122.48 266.646 122.128 265.056 121.79 264.159C123.266 263.503 124.424 262.351 124.838 260.711C128.176 247.479 131.291 232.568 124.156 220.923C121.799 217.077 118.512 213.959 115.218 210.835C113.555 209.258 111.889 207.679 110.342 206.003C105.731 201.012 101.983 194.243 103.657 187.668C106.732 175.593 116.367 165.393 128.277 161.603C140.186 157.813 153.972 160.561 163.501 168.624C163.147 173.682 159.123 177.051 155.048 180.464C153.14 182.061 151.221 183.668 149.661 185.463C143.366 192.705 143.05 203.519 145.637 212.747C147.657 219.953 151.237 226.721 156.062 232.455C157.276 233.897 158.773 235.375 160.66 235.462C163.196 235.578 165.095 233.143 166.012 230.784C169.26 222.429 166.025 213.075 162.452 204.853C161.077 201.687 163.874 198.37 166.428 196.04L183.912 180.092C188.383 176.014 193.145 171.389 193.803 165.386C194.364 160.278 191.69 155.243 187.952 151.703C184.215 148.163 179.499 145.858 174.864 143.607L166.036 139.321C168.946 143.047 173.338 145.139 177.663 147.199C178.498 147.597 179.331 147.994 180.15 148.401C185.21 150.915 190.404 154.584 191.562 160.098C192.986 166.872 187.815 173.089 183.02 178.097C176.949 184.438 170.825 190.825 163.613 195.841C161.159 197.548 158.438 199.136 155.448 199.243C152.457 199.35 149.203 197.482 148.734 194.537C148.31 191.878 150.148 189.442 151.877 187.373L164.659 172.073C166.602 169.747 169.161 169.142 172.206 168.422C173.277 168.169 174.408 167.902 175.593 167.54C168.421 167.905 162.313 165.167 156.139 162.4ZM104.405 121.279C104.921 125.91 106.353 130.547 109.256 134.2C112.16 137.852 116.684 140.395 121.356 140.193C122.92 140.125 123.421 137.806 122.493 136.55C121.687 135.46 120.355 134.965 119.063 134.484C118.865 134.41 118.669 134.337 118.475 134.262C117.015 133.698 115.459 132.753 115.195 131.215C119.314 134.408 125.464 134.704 129.873 131.922C131.408 136.311 136.499 138.946 141.106 138.221C145.714 137.497 149.564 133.827 151.093 129.436C151.122 129.352 151.151 129.268 151.18 129.183C151.412 128.499 151.651 127.797 152.178 127.313C152.669 126.862 153.34 126.67 153.984 126.493L166.581 123.022C166.894 122.935 167.249 122.854 167.526 123.022C167.822 123.201 167.904 123.585 167.947 123.928C168.819 130.814 164.939 138.047 158.709 141.151C155.368 142.816 151.55 143.36 147.766 143.899C142.827 144.603 137.945 145.299 134.25 148.465C132.24 150.188 130.845 152.451 129.447 154.719C128.78 155.803 128.111 156.887 127.375 157.914C122.859 164.213 114.566 168.478 107.201 166.017C102.973 164.604 99.6872 161.262 96.9863 157.727C88.8557 147.085 84.564 133.593 85.0583 120.228C85.148 117.803 85.3979 115.348 86.278 113.085C91.8597 119.548 98.3137 125.263 105.411 130.026C105.163 128.743 104.271 127.69 103.384 126.729C100.843 123.978 98.0394 121.402 95.2387 118.829C88.7257 112.845 82.2293 106.877 79.1011 98.7617C78.4135 96.978 77.9049 95.0305 78.3285 93.1669C79.2893 88.94 84.275 87.1805 88.5386 86.3224C98.7783 84.2616 109.228 83.2408 119.675 83.2809C120.23 89.7283 125.614 95.4946 132.052 96.3435C138.491 97.1924 145.276 92.899 147.084 86.6836C147.137 86.4992 147.188 86.3124 147.238 86.1251C147.463 85.2897 147.69 84.446 148.227 83.7774C148.884 82.9589 150.221 82.5565 150.989 83.2738C156.677 88.5908 162.645 93.7026 169.447 97.5052C176.249 101.308 183.977 103.76 191.769 103.416C178.459 108.255 164.855 112.288 151.056 115.486C150.001 115.73 148.694 115.891 148.015 115.049C145.612 112.066 141.692 110.363 137.863 110.639C134.033 110.915 130.401 113.162 128.453 116.458C127.748 117.652 125.988 117.502 124.649 117.129C121.865 116.352 118.999 115.158 117.354 112.789C117.076 112.389 116.835 111.959 116.595 111.529C116.125 110.688 115.656 109.851 114.915 109.25C113.865 108.401 112.491 108.194 111.13 107.989C110.751 107.932 110.374 107.875 110.005 107.805C105.803 107.003 102.081 104.026 100.388 100.111C104.35 97.4675 109.699 98.7219 114.073 100.612C114.761 100.91 115.452 101.223 116.145 101.537C119.853 103.216 123.636 104.929 127.636 104.563C131.037 104.252 134.005 102.488 136.986 100.718C139.621 99.1519 142.266 97.5803 145.229 97.0012C152.831 95.5154 160.292 101.156 163.85 108.011C163.878 108.063 163.905 108.116 163.932 108.169C164.515 109.294 165.144 110.512 166.311 110.984C165.12 104.312 160.09 98.4588 153.657 96.2595C147.223 94.0601 139.646 95.6034 134.595 100.142C131.461 102.958 126.698 103.157 122.607 102.122C120.303 101.539 118.107 100.626 115.909 99.7127C114.206 99.0044 112.501 98.2956 110.744 97.74C106.721 96.4678 102.075 96.0915 98.494 98.3177C97.4191 95.9575 95.981 93.7619 94.2453 91.8313C95.9656 101.667 104.969 109.754 114.965 110.442L109.418 112.542C108.122 113.032 106.778 113.554 105.827 114.559C104.199 116.28 104.143 118.928 104.405 121.279ZM101.668 190.076C101.129 192.783 100.833 195.716 102.049 198.196C102.704 199.532 103.749 200.63 104.778 201.71L104.848 201.784C111.035 208.281 116.845 215.133 122.242 222.294C119.846 224.588 117.178 226.6 114.312 228.275C113.514 228.742 112.652 229.195 111.726 229.179C110.347 229.154 109.226 228.115 108.256 227.138C101.479 220.315 94.8769 213.32 88.4584 206.162C86.4176 203.886 84.3426 201.503 83.4151 198.594C82.2362 194.897 83.0708 190.896 83.9124 187.109C86.2331 176.664 88.6745 165.934 94.7261 157.097C98.1257 163.179 104.422 167.57 111.322 168.669C106.537 174.956 103.209 182.336 101.668 190.076ZM144.781 73.6276C143.769 75.7366 142.061 77.5995 139.846 78.3721C136.894 79.4021 133.647 78.3716 130.757 77.1801C129.255 76.561 127.737 75.8741 126.574 74.7429C125.586 73.7827 124.91 72.5554 124.283 71.3307C122.332 67.5167 120.72 63.5307 119.471 59.4346C118.438 56.0473 117.906 51.7611 120.655 49.5177C123.794 51.9185 128.017 52.5207 131.948 52.0652C135.442 51.6603 138.791 50.5027 142.121 49.3513C142.536 49.2076 142.952 49.064 143.367 48.922C143.841 48.7599 144.403 48.6101 144.812 48.8986C145.125 49.1193 145.236 49.5241 145.321 49.8968C146.585 55.4394 146.954 61.1839 146.407 66.8418C146.183 69.1688 145.793 71.5186 144.781 73.6276ZM157.394 231.967C151.767 224.491 147.997 215.638 146.512 206.411C145.875 202.449 145.669 198.297 146.994 194.509C148.259 199.471 154.253 202.64 159.086 200.902C160.348 203.492 161.495 206.137 162.523 208.827C165.223 215.895 167.061 223.938 164.071 230.889C163.352 232.56 161.931 234.339 160.127 234.072C158.957 233.899 158.104 232.909 157.394 231.967ZM119.924 38.9472C121.347 36.408 124.477 35.118 127.385 35.3621C128.064 35.419 128.74 35.5049 129.403 35.5891C131.502 35.8558 133.465 36.1052 134.947 35.3621C137.204 34.2307 138.147 32.658 139.107 31.0572C139.748 29.9886 140.396 28.9074 141.448 27.9367C142.113 27.3226 142.855 26.7333 143.741 26.5392C145.552 26.1422 147.291 27.5166 148.323 29.0524C150.537 32.3485 150.83 36.8346 149.061 40.3882C147.114 44.3017 143.1 46.7506 139.084 48.502C136.193 49.763 133.133 50.7858 129.977 50.8509C126.822 50.9159 123.538 49.9201 121.362 47.642C119.186 45.3638 118.385 41.693 119.924 38.9472ZM111.027 244.899C110.891 243.899 110.785 242.783 111.394 241.977C113.889 242.201 116.464 241.3 118.271 239.571C117.722 238.44 116.02 238.517 114.945 239.173C114.533 239.425 114.154 239.734 113.776 240.042C113.17 240.538 112.566 241.03 111.831 241.279C111.12 240.578 111.248 239.341 111.839 238.537C112.43 237.734 113.359 237.26 114.253 236.814L119.885 234.007C118.803 232.94 117 232.926 115.619 233.565C114.238 234.203 113.181 235.362 112.164 236.491C111.035 234.526 111.841 231.707 113.839 230.63L121.135 226.695C121.702 226.389 122.303 226.075 122.947 226.094C124.342 226.136 125.184 227.64 125.565 228.978C126.669 232.847 126.333 236.959 125.987 240.967C125.478 246.86 124.961 252.799 123.303 258.478C122.731 260.435 121.829 262.567 119.93 263.326C117.87 264.15 115.446 262.9 114.214 261.061C112.982 259.221 112.655 256.944 112.358 254.752L111.027 244.899ZM208.296 111.285C209.086 111.189 209.77 110.279 209.385 109.585L206.673 104.697C206.315 104.053 205.95 103.382 205.902 102.647C205.855 101.913 206.223 101.097 206.925 100.87C207.931 100.545 208.856 101.513 209.438 102.393C210.665 104.245 211.734 106.201 212.631 108.233C213.696 106.819 212.533 104.867 211.47 103.452C210.408 102.037 209.477 99.8666 210.807 98.6962C212.119 97.5401 214.206 98.725 215.211 100.155C215.74 100.905 216.174 101.738 216.606 102.568C217.445 104.176 218.277 105.772 219.774 106.736C220.421 106.342 220.099 105.355 219.707 104.708L214.681 96.4183C214.231 95.677 214.974 94.6718 215.834 94.5466C216.694 94.4214 217.524 94.8799 218.243 95.3673C221.699 97.7118 224.452 101.301 225.101 105.416C225.75 109.532 223.987 114.104 220.363 116.181C219.267 116.81 218.046 117.201 216.804 117.442C209.249 118.906 200.98 114.086 198.557 106.807C198.187 105.693 198.097 104.171 199.149 103.643C199.951 103.241 200.92 103.719 201.588 104.317C202.553 105.181 203.243 106.286 203.933 107.392C204.597 108.457 205.262 109.523 206.174 110.374C206.755 110.917 207.506 111.381 208.296 111.285ZM129.477 119.464C130.405 119.492 131.368 119.522 132.139 120.02C132.99 120.569 133.361 121.959 132.555 122.572C132.25 122.804 131.854 122.871 131.475 122.932C127.954 123.495 123.936 123.932 121.199 121.654C120.583 121.934 120.404 122.778 120.655 123.404C120.906 124.03 121.465 124.475 122.025 124.854C124.509 126.537 127.483 127.493 130.486 127.574C128.519 129.272 125.641 129.849 123.168 129.042C122.197 128.726 120.832 128.364 120.402 129.288C122.307 131.102 125.213 131.241 127.848 131.275C123.142 133.51 116.967 132.055 113.765 127.956C113.537 127.664 113.022 127.813 112.841 128.136C112.66 128.459 112.709 128.856 112.764 129.222C113.041 131.084 113.421 133.131 114.905 134.297C115.69 134.914 116.664 135.183 117.639 135.452C118.028 135.559 118.417 135.667 118.794 135.796C120.117 136.25 121.484 137.247 121.497 138.641C117.236 139.007 113.065 136.601 110.485 133.202C107.906 129.803 106.721 125.542 106.174 121.316C106.033 120.224 105.934 119.093 106.252 118.038C106.887 115.938 108.969 114.668 110.888 113.594C112.28 112.814 114.199 112.096 115.303 113.245C118.901 116.989 123.993 119.266 129.192 119.455C129.287 119.458 129.382 119.461 129.477 119.464ZM138.616 127.013L193.144 111.972C195.519 111.317 198.329 110.745 200.23 112.307C178.64 118.955 156.774 124.711 134.707 129.556C133.506 129.82 131.793 129.767 131.584 128.559C132.309 128.586 132.306 127.776 132.303 126.919C132.3 126.075 132.297 125.187 132.988 125.007L196.532 108.47C196.916 108.37 197.404 108.303 197.639 108.622C198.023 109.139 197.238 109.718 196.617 109.89L136.012 126.678C136.562 127.431 137.715 127.262 138.616 127.013ZM200.096 122.679C196.162 125.306 191.167 125.995 186.465 125.439C181.763 124.884 177.279 123.179 172.922 121.332L199.01 114.046C199.925 113.79 201.054 113.589 201.699 114.284C206.993 119.983 216.625 121 223 116.533C222.257 120.079 219.038 122.965 215.42 123.327C213.359 123.533 211.329 123 209.31 122.47C208.774 122.329 208.24 122.189 207.705 122.062C205.155 121.459 202.273 121.225 200.096 122.679ZM128.001 79.035C128.373 78.5036 129.175 78.2105 129.692 78.6049C132.719 80.9168 136.928 81.5995 140.535 80.3637C141.686 79.9693 142.996 80.786 143.471 81.9027C143.946 83.0195 143.754 84.3135 143.337 85.4529C142.065 88.9224 138.643 91.5036 134.947 91.7813C131.251 92.059 127.479 90.0183 125.7 86.7779C125.15 85.7776 124.967 84.2097 126.027 83.7785C127.083 83.3483 127.386 82.023 127.5 80.8913L127.504 80.8571C127.568 80.2223 127.635 79.5571 128.001 79.035ZM228.816 106.809C228.39 106.924 227.94 107.037 227.514 106.923C227.088 106.809 226.712 106.383 226.819 105.956C230.632 105.353 234.313 103.933 237.54 101.821C238.797 100.998 240.131 99.5643 239.496 98.2058C239.076 97.305 237.947 96.9584 236.951 96.9989C235.508 97.0577 234.163 97.7024 232.866 98.3346L225.869 101.745C225.544 101.361 225.679 100.744 226.023 100.376C226.355 100.022 226.825 99.8409 227.279 99.6654L227.33 99.6458C230.506 98.4174 233.466 96.6339 236.032 94.4012C236.784 93.7473 236.394 92.4 235.535 91.8929C234.677 91.3857 233.598 91.4858 232.617 91.6683C229.772 92.1979 227.033 93.2919 224.608 94.8676C223.414 95.6433 221.72 96.5024 220.744 95.468C223.379 92.8067 226.991 91.3864 230.491 90.0379L237.263 87.4286C237.734 87.2472 238.243 87.063 238.732 87.1877C239.397 87.3575 239.787 88.0277 240.088 88.6428C241.799 92.1328 243.058 95.8419 243.825 99.6498C243.937 100.202 244.029 100.813 243.743 101.299C243.485 101.74 242.98 101.966 242.506 102.161C238.048 103.998 233.473 105.552 228.816 106.809ZM196.789 107.042C196.535 107.311 196.157 107.416 195.799 107.509L133.611 123.733C134.576 121.409 137.414 120.615 139.88 120.078C157.038 116.347 173.847 111.201 190.637 106.061C191.592 105.769 192.546 105.476 193.501 105.184C194.329 104.931 195.232 104.679 196.043 104.982C196.855 105.284 197.383 106.413 196.789 107.042ZM112.621 45.167C113.002 43.9242 113.624 42.207 114.599 41.3437C115.096 40.9035 115.769 40.434 116.367 40.7235C116.743 40.9055 116.928 41.3262 117.082 41.7133C117.312 42.2923 117.642 43.0686 117.971 43.8448C118.3 44.6211 118.629 45.3974 118.86 45.9764C119.183 46.7885 119.496 48.0506 118.903 48.4607C116.367 50.2146 116.944 56.6174 118.08 59.5635C118.351 60.2669 118.583 61.7083 118.35 62.7591C118.116 63.8099 116.944 64.7552 115.986 64.2584C115.436 63.9735 114.564 62.4633 114.248 61.9163C114.219 61.8663 114.195 61.8244 114.176 61.7922C109.505 53.828 112.095 46.6339 112.561 45.3387C112.59 45.2583 112.61 45.2007 112.621 45.167ZM133.113 131.402C137.266 130.635 141.376 129.638 145.418 128.418C145.481 128.399 145.543 128.38 145.606 128.361C146.864 127.98 148.141 127.594 149.454 127.6C149.289 129.671 148.135 131.589 146.551 132.94C144.968 134.291 142.985 135.113 140.954 135.581C139.414 135.936 137.79 136.096 136.26 135.702C134.73 135.308 133.303 134.288 132.721 132.824C132.512 132.299 132.556 131.505 133.113 131.402ZM138.262 119.049C135.613 119.423 132.814 119.232 130.43 118.023C129.926 117.768 130.187 117 130.543 116.562C132.373 114.312 135.145 112.847 138.042 112.601C140.939 112.355 143.92 113.33 146.106 115.24C146.468 115.555 146.835 116.054 146.591 116.467C146.462 116.684 146.205 116.784 145.967 116.869C143.449 117.77 140.91 118.675 138.262 119.049ZM130.102 94.5698C127.747 93.8339 125.904 91.9664 124.558 89.9055C123.742 88.6563 123.074 87.3216 122.406 85.9862C121.972 85.1187 121.537 84.2509 121.062 83.4061C121.935 83.2616 122.784 83.8544 123.268 84.5921C123.614 85.1188 123.823 85.715 124.033 86.3114C124.116 86.5504 124.2 86.7894 124.293 87.024C126.034 91.429 131.22 94.0705 135.89 93.1975C140.56 92.3244 144.347 88.2256 145.157 83.5606C145.242 83.0704 145.396 82.4641 145.886 82.3668C146.415 82.8071 146.438 83.603 146.345 84.2835C145.667 89.2225 141.174 92.9389 136.373 94.3422C134.336 94.9377 132.127 95.2027 130.102 94.5698ZM223.454 97.5269C226.396 95.2385 229.865 93.6255 233.515 92.8476C233.953 92.7542 234.611 92.8503 234.571 93.2952C234.559 93.4357 234.467 93.5552 234.376 93.6638C232.563 95.843 229.909 97.1182 227.341 98.3284C226.621 98.6675 225.863 99.0145 225.068 98.9656C224.274 98.9166 223.453 98.32 223.454 97.5269ZM236.188 98.6238C236.566 98.5034 236.98 98.3904 237.351 98.5292C237.723 98.6681 237.969 99.1768 237.707 99.4743C235.454 102.037 232.084 103.301 228.795 104.232C227.935 104.476 226.671 104.47 226.524 103.591C229.438 101.415 232.719 99.7284 236.188 98.6238ZM147.722 61.0818C147.913 59.9092 148.14 58.5081 148.14 57.6019C148.14 56.3571 148.329 54.8345 149.494 54.3911C150.611 53.9661 151.873 54.9858 152.088 56.1575C152.303 57.3292 150.975 62.0599 150.315 63.0533C150.014 63.5073 149.663 63.9601 149.167 64.1883C148.671 64.4165 147.996 64.3426 147.692 63.8902C147.534 63.6547 147.499 63.3605 147.472 63.0784C147.444 62.7956 147.572 62.0104 147.722 61.0818ZM147.749 46.3459C147.807 46.4293 147.832 46.5305 147.856 46.6293C148.339 48.6758 148.527 50.7915 148.411 52.8908C147.856 53.1396 147.397 52.4014 147.233 51.8173L146.536 49.3185C146.261 48.335 146.04 47.1316 146.773 46.4182C147.039 46.1593 147.537 46.0417 147.749 46.3459ZM118.387 68.6121C117.666 68.1156 117.082 67.7131 117.082 66.4847C117.082 65.0314 118.658 63.6152 119.001 63.8902C120.25 64.8902 122.495 69.8493 122.607 71.4418C121.667 71.0594 120.975 70.5379 119.71 69.5857C119.435 69.3785 119.132 69.1509 118.794 68.8999C118.656 68.797 118.519 68.703 118.387 68.6121ZM126.583 125.267L129.13 124.73C129.448 124.663 129.834 124.617 130.046 124.862C130.456 125.333 129.649 125.929 129.024 125.941C128.168 125.956 127.309 125.719 126.583 125.267ZM203.896 101.949C204.357 102.001 204.746 102.588 204.443 102.937L204.415 102.969C204.017 103.272 203.559 103.592 203.064 103.52C202.568 103.449 202.219 102.726 202.629 102.44C203.009 102.175 203.435 101.897 203.896 101.949ZM207.56 109.537L206.982 109.452L206.925 109.447L205.699 107.567C206.774 107.22 207.973 108.488 207.56 109.537ZM204.867 106.144C204.396 106.167 204.017 105.582 204.233 105.164C204.449 104.746 205.147 104.712 205.402 105.107C205.658 105.502 205.338 106.121 204.867 106.144ZM140.58 44.8358L136.152 46.9245C132.77 48.5204 128.521 48.1069 125.512 45.8891C125.088 45.791 124.719 46.2969 124.791 46.7253C124.863 47.1537 125.212 47.4777 125.562 47.7363C127.988 49.5278 131.305 49.7523 134.231 49.0098C137.157 48.2673 139.781 46.6688 142.323 45.0456C142.139 44.4028 141.186 44.5497 140.58 44.8358ZM136.417 54.5266C136.053 54.8509 135.424 54.4106 135.43 53.9243C135.435 53.4379 135.831 53.047 136.239 52.7802C137.951 51.6615 140.405 51.8352 141.94 53.1836C141.602 53.7388 140.809 53.6101 140.142 53.5017L140.042 53.4854L139.988 53.4769C138.721 53.2784 137.373 53.6747 136.417 54.5266ZM128.218 56.3643C128.799 56.2322 129.413 55.7892 129.358 55.1982C129.311 54.6999 128.808 54.3691 128.325 54.235C127.184 53.9187 125.874 54.3298 125.121 55.2404C124.368 56.1509 124.214 57.5106 124.743 58.5657C124.999 58.3386 125.206 58.0588 125.413 57.7805C125.72 57.3676 126.024 56.958 126.476 56.7286C126.819 56.5548 127.203 56.5086 127.588 56.4622C127.799 56.4367 128.012 56.4111 128.218 56.3643ZM139.779 62.9232C140.482 62.9132 140.956 62.1901 141.132 61.5125C141.495 60.1189 141.126 58.5569 140.176 57.4716C139.747 56.9802 139.014 56.5714 138.467 56.9291C138.298 57.0397 138.176 57.2097 138.078 57.3862C137.392 58.6216 137.736 60.1662 138.269 61.4743C138.55 62.1617 139.035 62.9338 139.779 62.9232ZM130.897 62.9261L130.688 60.753C130.608 59.926 130.43 58.9537 129.674 58.6039C128.641 58.1261 127.549 59.2709 127.279 60.3734C126.988 61.5574 127.156 62.8472 127.74 63.9181C128.27 64.8894 129.589 65.7032 130.432 64.9841C130.991 64.5076 130.967 63.6554 130.897 62.9261ZM129.151 225.807C134.976 225.634 140.8 225.463 146.624 225.295C147.264 225.277 147.951 225.271 148.482 225.628C148.974 225.958 149.244 226.589 149.141 227.172L132.043 227.492C131.408 227.504 130.75 227.512 130.166 227.264C129.582 227.015 129.089 226.436 129.151 225.807ZM135.134 69.9591C134.51 69.7814 134.804 68.8581 135.098 68.2811C136.046 66.4169 135.512 64.1306 134.562 62.2671L134.539 62.2209C134.328 61.8081 134.103 61.3671 134.178 60.9125C134.255 60.441 134.852 60.0488 135.224 60.3495C135.336 60.44 135.405 60.5723 135.469 60.7008C136.182 62.116 136.882 63.5708 137.114 65.1373C137.346 66.7039 137.047 68.4235 135.969 69.587C135.751 69.8223 135.443 70.047 135.134 69.9591ZM136.065 75.8962C138.989 75.4293 141.334 72.5928 141.233 69.6445C141.227 69.4691 141.212 69.2865 141.121 69.136C140.867 68.7139 140.177 68.8123 139.851 69.1821C139.583 69.4863 139.481 69.8895 139.381 70.2871L139.381 70.2873L139.381 70.2878C139.359 70.3732 139.337 70.4583 139.314 70.5421C138.924 71.9613 137.951 73.2123 136.67 73.9443C136.607 73.9799 136.544 74.015 136.48 74.0502C136.105 74.2562 135.72 74.4679 135.524 74.8385C135.294 75.2725 135.579 75.9739 136.065 75.8962ZM153.915 253.46C154.04 256.961 154.431 268.073 153.974 270.089C153.89 270.464 153.752 270.891 153.391 271.028C152.674 271.3 152.252 270.226 152.244 269.461C152.171 263.262 152.099 255.978 152.027 248.693V248.693C151.955 241.408 151.882 234.124 151.81 227.925C153 227.925 153.391 232.108 153.391 234.809C153.391 243.886 153.915 253.46 153.915 253.46ZM112.972 176.47C112.797 176.369 112.595 176.267 112.387 176.163C111.558 175.748 110.646 175.292 111.126 174.65C123.814 175.197 136.531 175.07 149.205 174.27C152.795 174.043 156.844 173.52 158.977 170.635C159.063 170.519 159.145 170.4 159.227 170.281L159.228 170.28C159.511 169.869 159.796 169.456 160.214 169.189C160.752 168.845 161.614 168.888 161.884 169.467C161.503 172.559 158.594 175.138 155.467 175.153C154.099 175.16 153.635 176.939 153.461 178.292C153.288 179.644 152.352 181.377 151.067 180.906C151.392 179.797 151.602 178.655 151.693 177.504C151.723 177.118 151.715 176.67 151.416 176.423C151.183 176.232 150.852 176.231 150.55 176.239L117.063 177.191C116.85 177.197 116.616 177.212 116.465 177.36C116.28 177.541 116.297 177.838 116.327 178.094L118.704 198.285C118.756 198.729 118.937 199.296 119.386 199.299L138.37 199.403C139.379 199.408 140.815 200.177 140.199 200.973C139.946 201.299 139.473 201.329 139.06 201.33L119.74 201.408C118.924 201.412 118.693 202.517 118.723 203.329L119.031 211.637C116.71 209.989 116.551 206.682 116.535 203.843C116.487 195.569 115.745 187.299 114.318 179.147C114.14 178.13 113.867 176.989 112.972 176.47Z" fill="#A7DACE"/>
<path fill-rule="evenodd" clip-rule="evenodd" d="M155.957 215.691C156.752 213.895 158.604 212.611 160.571 212.494C161.082 212.463 161.662 212.538 161.974 212.943C162.286 213.347 162.018 214.116 161.511 214.049C160.292 213.89 159.075 214.51 158.219 215.39C157.364 216.27 156.806 217.387 156.261 218.486C155.479 217.847 155.549 216.613 155.957 215.691Z" fill="#A7DACE"/>
<path fill-rule="evenodd" clip-rule="evenodd" d="M242.824 43.7978C243.824 43.8919 244.75 43.3146 245.579 42.7493C247.882 41.1777 250.364 39.0349 250.212 36.256C250.164 35.3735 249.845 34.5432 249.526 33.7119C249.389 33.3562 249.252 33.0002 249.137 32.64C248.533 30.7585 248.511 28.7748 248.488 26.786C248.47 25.1547 248.452 23.5199 248.112 21.9354C247.991 21.3672 247.747 20.7216 247.187 20.56C246.872 20.469 246.536 20.5615 246.221 20.6537L236.157 23.5978C234.263 24.152 233.857 26.6043 233.803 28.5718L233.655 33.9255C233.057 34.0002 232.489 33.7665 231.921 33.5327C231.705 33.4435 231.488 33.3543 231.27 33.2822C229.119 32.5726 226.519 33.7657 225.661 35.8557C224.803 37.9456 225.818 40.6142 227.85 41.6116C229.882 42.6091 232.622 41.7835 233.76 39.831C234.533 38.5052 234.578 36.8954 234.604 35.3621L234.651 32.4832C234.669 31.4073 235.88 30.8106 236.903 30.4686C240.055 29.415 243.236 28.448 246.441 27.5691C246.758 27.4822 247.152 27.417 247.368 27.6634C247.485 27.7966 247.511 27.9841 247.531 28.1599L247.97 31.9291C248.035 32.4881 247.972 33.2398 247.42 33.3583C244.755 33.9306 242.387 35.7449 241.145 38.1644C240.617 39.1951 240.283 40.3789 240.517 41.5128C240.751 42.6467 241.668 43.689 242.824 43.7978ZM246.895 22.2368C247.008 22.3507 247.04 22.5184 247.067 22.6756L247.373 24.445C247.453 24.9123 247.53 25.4143 247.326 25.8433C247.005 26.521 246.151 26.7248 245.411 26.8704C243.701 27.2068 242.012 27.6531 240.36 28.2057C238.979 28.6675 237.625 29.203 236.271 29.7383C236.157 29.7836 236.042 29.8289 235.928 29.8741C235.607 30.001 235.163 30.0925 234.979 29.802C234.933 29.7292 234.914 29.6432 234.898 29.5588C234.575 27.8431 235.37 25.9716 236.833 25.0027C237.639 24.4691 238.592 24.2074 239.526 23.9537L246.095 22.1705C246.366 22.0968 246.698 22.0376 246.895 22.2368ZM233.642 36.3461C233.614 38.0044 233.214 39.9005 231.739 40.703C230.568 41.3397 229.04 41.0337 227.978 40.234C226.731 39.2948 226.046 37.4246 226.957 36.1661C227.337 35.642 227.93 35.3022 228.544 35.0799C229.955 34.5693 231.566 34.6207 232.94 35.2199C233.159 35.3156 233.383 35.4337 233.51 35.634C233.641 35.8418 233.646 36.1013 233.642 36.3461ZM57.8193 40.0514C57.9897 40.5748 58.7323 40.5547 59.2699 40.429L64.1577 39.2859C64.0213 38.0169 63.774 36.7598 63.4196 35.5333C63.3151 35.1719 63.1891 34.7938 62.9048 34.5465C62.4644 34.1634 61.8053 34.2163 61.2256 34.2915L53.7181 35.2653C53.2027 35.3322 52.5148 35.6662 52.711 36.1458C54.4297 40.3477 55.7853 44.697 56.7579 49.1299C56.944 49.9778 56.9126 51.1686 56.0617 51.3546C53.5974 51.8933 51.4889 53.8205 50.7382 56.2204C50.5073 56.9587 50.4024 57.7787 50.7012 58.4924C50.8631 58.8792 51.1348 59.2118 51.4393 59.5009C52.9008 60.8883 55.2321 61.2741 57.0653 60.432C58.8985 59.5899 60.118 57.573 60.0082 55.5646C59.9668 54.806 59.7549 54.0682 59.5444 53.338L54.7452 36.6919L61.0995 36.195C61.7378 36.2307 62.0075 37.1343 61.6703 37.6754C61.3331 38.2166 60.6632 38.4416 60.0365 38.5672C59.9462 38.5853 59.8551 38.6024 59.7637 38.6196C59.2206 38.7215 58.6682 38.8252 58.2278 39.1488C57.9428 39.3583 57.71 39.7157 57.8193 40.0514Z" fill="#FFB61D"/>
<path fill-rule="evenodd" clip-rule="evenodd" d="M154.91 210.307C154.719 210.554 154.289 210.484 154.105 210.232C153.921 209.979 153.937 209.63 154.038 209.335C154.217 208.806 154.623 208.386 155.048 208.022C156.117 207.109 157.389 206.434 158.746 206.06C159.281 205.912 159.904 205.827 160.347 206.16C160.79 206.493 160.719 207.383 160.166 207.433C158.118 207.616 156.164 208.684 154.91 210.307Z" fill="#A7DACE"/>
</svg>
