
<svg width="355" height="355" viewBox="0 0 355 355" fill="none" xmlns="http://www.w3.org/2000/svg">
<rect width="355" height="355" fill="white"/>
<path fill-rule="evenodd" clip-rule="evenodd" d="M160.675 136.413C159.914 135.349 157.998 134.339 156.321 134.422C154.644 134.505 153.065 135.198 151.56 135.936C152.709 136.774 154.002 137.418 155.366 137.834C155.798 137.965 156.775 138.352 158.883 137.482" fill="#E7EAEE"/>
<path fill-rule="evenodd" clip-rule="evenodd" d="M43.2417 252.084C7.62939e-06 193.414 115.836 177.635 184.644 132.594C222.138 108.051 239.287 81.202 271.693 81.9311C337.944 83.4216 340.655 208.566 326.586 231.047C273.537 315.817 61.1397 276.367 43.2417 252.084Z" fill="#A7DACE"/>
<path fill-rule="evenodd" clip-rule="evenodd" d="M180.34 172.62C194.79 172.62 209.493 173.986 222.462 180.467C223.991 181.231 225.755 182.65 225.204 184.286C224.997 184.9 224.491 185.355 223.988 185.756C218.112 190.451 210.301 191.644 202.865 192.487C199.976 192.815 197.083 193.114 194.186 193.357C171.196 195.282 147.914 193.592 125.429 188.365C124.106 188.058 122.564 187.534 122.196 186.208C121.749 184.597 123.366 183.22 124.797 182.385C135.873 175.929 148.53 172.286 161.3 171.881C159.028 172.235 191.53 172.704 180.34 172.62Z" fill="white"/>
<path fill-rule="evenodd" clip-rule="evenodd" d="M263.247 126.748C260.265 132.752 257.772 139.115 257.084 145.793C257.055 146.081 257.032 146.388 257.166 146.644C257.436 147.162 258.149 147.188 258.729 147.15C272.158 146.265 286.038 148.908 297.432 156.123C301.326 158.59 304.903 161.562 308.942 163.78C309.12 163.878 309.323 163.977 309.518 163.92C309.714 163.863 309.833 163.667 309.932 163.487C312.386 159.025 314.56 154.407 316.436 149.669C317.102 147.989 317.736 146.269 317.9 144.468C318.315 139.935 315.333 135.309 311.053 133.848C300.084 130.103 289.114 126.358 278.145 122.613C276.14 121.929 274.108 121.239 271.996 121.086C269.885 120.933 267.649 121.375 266.021 122.738C264.768 123.787 263.976 125.28 263.247 126.748Z" fill="white"/>
<path d="M222.921 269.303C222.899 270.434 225.612 271.274 226.441 270.501C227.27 269.729 227.368 268.474 227.412 267.343C228.003 252.107 228.12 237.334 227.807 222.09L267.841 232.45L266.053 272.924C265.998 274.071 267.775 274.498 268.641 273.742C269.507 272.986 269.649 271.716 269.729 270.571C270.554 258.781 270.7 246.937 271.349 235.155C271.693 228.913 279.725 228.913 287.53 221.215C291.417 217.383 294.733 212.095 294.733 212.095C295.35 226.409 296.541 240.76 295.467 255.048C295.385 256.134 297.069 256.575 297.9 255.869C298.697 255.191 298.863 254.053 298.946 253.002L298.956 252.871C300.062 237.915 301.34 205.908 302.933 184.943C303.537 177.004 305.246 169.399 306.247 164.887C306.688 162.896 305.306 162.93 302.539 161.687C301.406 161.179 298.875 164.909 297.727 175.496L297.669 176.053C297.254 180.265 296.893 188.214 296.584 199.901C296.083 202.579 293.065 203.198 287.53 201.758L287.313 201.701C281.64 200.188 272.939 197.425 261.208 193.414L261.127 192.308C259.849 174.54 260.284 162.124 262.433 155.058L262.5 154.841C265.878 144.084 260.239 148.531 259.598 149.391C255.307 155.143 254.384 162.495 254.411 169.123L254.493 189.049C254.492 191.13 254.393 193.302 253.253 195.027C252.275 196.507 250.673 197.431 249.107 198.281L229.742 208.753C227.958 209.725 226.181 210.755 224.776 212.214C223.231 213.818 222.179 216.054 222.536 218.251C222.774 219.715 223.373 220.855 224.332 221.67L223.981 231.919C223.447 247.881 223.094 260.343 222.921 269.303Z" fill="white"/>
<path d="M128.292 270.249C128.314 271.381 126.548 271.747 125.719 270.975C124.89 270.202 124.792 268.947 124.748 267.816C124.157 252.581 123.566 237.334 123.88 222.09C110.51 226.092 97.1398 230.093 83.7698 234.094C84.3912 247.038 85.0126 259.981 85.634 272.924C85.6891 274.071 83.9118 274.498 83.0456 273.742C82.1794 272.986 82.0375 271.716 81.9573 270.571C81.1326 258.781 80.5925 246.971 80.3374 235.155C80.3057 233.683 79.1407 232.516 78.0561 231.518C71.0219 225.043 63.9878 218.569 56.9537 212.095C56.3368 226.409 56.5659 240.76 57.6396 255.048C57.7212 256.134 56.038 256.575 55.207 255.869C54.376 255.162 54.2312 253.957 54.1509 252.871C52.4208 229.472 53.594 205.931 51.8482 182.533C51.4285 176.908 50.8209 171.214 48.7534 165.964C52.4552 165.104 95.6994 156.206 92.0358 150.581C96.9733 155.017 97.303 162.495 97.2756 169.123C97.2486 175.627 97.2217 182.131 97.1948 188.635C97.1857 190.838 97.2176 193.187 98.4335 195.027C99.4511 196.566 101.142 197.504 102.768 198.383C108.981 201.743 115.195 205.103 121.409 208.463C123.37 209.523 125.365 210.609 126.91 212.214C128.455 213.818 129.507 216.054 129.15 218.251C128.793 220.447 126.706 222.394 124.495 222.098C126.837 222.596 126.611 222.068 127.355 221.67C127.667 237.863 127.98 254.056 128.292 270.249Z" fill="white"/>
<path d="M51.631 170.103C50.9873 168.156 50.3436 166.209 49.7 164.263C50.5966 164.486 82.5338 153.205 88.4078 151.499C88.982 151.332 89.3071 151.257 89.3299 151.293C93.1856 157.391 93.275 165.049 93.2429 172.262C93.2131 178.961 93.1833 185.66 93.1535 192.359C93.147 193.834 92.8497 195.706 91.4177 196.067C82.9447 198.198 74.5919 200.808 66.4123 203.877C64.0001 204.782 61.4781 205.745 58.9214 205.425C57.5774 205.256 56.3053 204.74 55.0513 204.228C54.2377 203.896 53.2857 203.37 53.2881 202.492C53.3071 195.314 53.3261 188.135 53.3452 180.957C53.3502 179.054 53.3545 177.14 53.0447 175.262C52.7541 173.501 52.1915 171.798 51.631 170.103Z" fill="white"/>
<path fill-rule="evenodd" clip-rule="evenodd" d="M177.309 0.319397C177.086 0.381308 176.735 0.339197 176.77 0.110999C176.903 0.0427377 177.052 -0.0275005 177.196 0.0108846C177.341 0.0492698 177.435 0.258398 177.319 0.352449L177.309 0.319397Z" fill="#00160A"/>
<path fill-rule="evenodd" clip-rule="evenodd" d="M35.9759 150.086L40.3001 161.281C40.7162 162.358 41.1792 163.498 42.1224 164.169C43.6977 165.29 45.8751 164.66 47.6757 163.951C51.3391 162.509 54.9324 160.898 58.5255 159.287C62.4293 157.537 66.3331 155.787 70.3265 154.253C77.9955 151.308 86.1312 149.153 94.3426 149.524C95.6535 149.583 96.7313 148.347 96.9638 147.061C97.1962 145.775 96.8025 144.468 96.4131 143.22L93.4771 133.812C92.4768 130.606 91.4263 127.308 89.2561 124.739C87.0859 122.171 83.4857 120.494 80.289 121.56L41.6032 134.457C37.0489 135.975 33.9569 140.981 34.6504 145.712C34.8717 147.222 35.4258 148.661 35.9759 150.086ZM87.0355 123.761C90.1922 126.5 91.6888 130.63 92.9932 134.591C94.1107 137.985 95.1799 141.399 95.993 144.878C96.1725 145.646 96.3394 146.45 96.149 147.215C95.9587 147.981 95.3009 148.69 94.5092 148.673C86.7228 148.51 79.0071 150.318 71.6648 152.904C66.2876 154.798 61.0739 157.107 55.8603 159.416L55.8601 159.416C53.9548 160.26 52.0495 161.104 50.1362 161.928C48.5953 162.591 47.0294 163.247 45.3709 163.506C44.0324 163.715 42.3036 163.407 41.9458 162.106C41.3223 159.838 40.3944 157.675 39.4659 155.51C38.8549 154.085 38.2436 152.66 37.7186 151.204C36.3957 147.535 35.6357 143.454 36.895 139.763C37.2852 138.619 37.8851 137.513 38.8196 136.743C39.6481 136.06 40.6822 135.685 41.6944 135.324C54.1873 130.868 66.767 126.653 79.424 122.682C80.8075 122.248 82.2525 121.812 83.6855 122.036C84.9441 122.232 86.0751 122.927 87.0355 123.761ZM49.6999 164.263L51.631 170.103C52.1915 171.798 52.7541 173.501 53.0447 175.262C53.3544 177.14 53.3502 179.054 53.3451 180.956L53.288 202.492C53.2857 203.37 54.2376 203.896 55.0513 204.228C56.3053 204.74 57.5773 205.256 58.9213 205.425C61.4475 205.741 63.9396 204.805 66.3256 203.91L66.4122 203.877C74.5919 200.808 82.9446 198.198 91.4176 196.067C92.8496 195.706 93.1469 193.834 93.1535 192.359L93.2428 172.262C93.2749 165.049 93.1856 157.391 89.3298 151.293C89.0743 150.889 88.6414 150.44 88.1995 150.623C90.3402 154.354 91.6791 158.542 92.0997 162.823C92.2932 164.792 92.2947 166.774 92.296 168.753L92.3117 192.393C92.3125 193.584 92.0816 195.096 90.9278 195.396C83.6014 197.302 76.2548 199.215 69.2053 201.974C68.9275 202.082 68.6487 202.192 68.3689 202.303C64.8624 203.689 61.2031 205.135 57.5264 204.457C55.7956 204.138 53.903 202.964 53.9374 201.205L54.2016 187.715C54.3425 180.523 54.4386 173.083 51.6441 166.454C51.2503 165.519 50.6842 164.508 49.6999 164.263ZM94.6666 198.91C85.5111 200.444 76.5228 202.919 67.8999 206.282C66.4869 206.833 65.0838 207.407 63.6808 207.982L61.6813 208.801C61.2275 208.355 61.9077 207.681 62.4944 207.419C72.2031 203.092 82.5204 200.059 93.0682 198.43C93.6684 198.338 94.4622 198.353 94.6666 198.91ZM81.4413 135.373C81.3384 135.865 81.5283 136.386 81.8449 136.77C82.19 137.188 82.7777 137.478 83.261 137.244C83.9358 136.918 83.8868 135.878 83.488 135.231C83.2584 134.859 82.909 134.516 82.4801 134.489C81.9908 134.458 81.5442 134.882 81.4413 135.373ZM82.8803 136.538C82.5317 136.694 82.0782 136.351 82.1206 135.963C82.163 135.575 82.6793 135.344 82.9856 135.576C83.2918 135.807 83.229 136.382 82.8803 136.538ZM61.492 142.992C60.9785 142.405 60.87 141.332 61.4557 140.832C61.5689 140.735 61.7033 140.664 61.8461 140.646C62.1703 140.604 62.4699 140.83 62.7121 141.069C63.2499 141.599 63.6917 142.519 63.2388 143.136C62.8251 143.7 61.949 143.514 61.492 142.992ZM62.4284 141.697C62.3052 141.569 62.1564 141.432 61.9882 141.458C61.6657 141.508 61.673 142.033 61.8297 142.345C62.0063 142.696 62.4377 143.021 62.7062 142.748C62.9817 142.467 62.7017 141.98 62.4284 141.697ZM51.898 145.069C51.6061 145.312 51.57 145.728 51.6035 146.095C51.6428 146.524 51.7565 146.964 52.0429 147.298C52.3293 147.632 52.8199 147.833 53.2505 147.698C53.665 147.568 53.9315 147.152 53.9574 146.738C53.9833 146.324 53.8046 145.919 53.556 145.578C53.1816 145.065 52.3929 144.659 51.898 145.069ZM52.4617 145.728C52.7157 145.557 53.1689 145.843 53.0072 146.096L53.1383 146.357C53.4656 146.395 53.4035 146.946 53.0825 147.018C52.7616 147.089 52.4554 146.826 52.3264 146.538C52.2045 146.266 52.2076 145.899 52.4617 145.728ZM70.3217 130.257C70.6533 130.317 70.9906 130.43 71.2253 130.671C71.46 130.912 71.5601 131.308 71.3831 131.594C71.2301 131.84 70.9261 131.943 70.6432 132.012C70.2291 132.112 69.788 132.178 69.3813 132.05C68.9747 131.923 68.6177 131.553 68.6337 131.128C68.6609 130.411 69.6127 130.129 70.3217 130.257ZM70.0488 130.982C69.7565 130.818 69.3313 131.003 69.2523 131.327C69.7432 131.623 70.4067 131.603 70.879 131.279C70.7799 130.975 70.3707 130.822 70.0951 130.985L70.0488 130.982ZM126.872 269.303L125.935 220.724C125.191 221.122 125.114 222.137 125.132 222.979L126.144 270.105C124.778 270.198 124.248 268.381 124.191 267.016C123.546 251.736 123.174 236.445 123.075 221.151C125.285 221.447 127.373 219.5 127.73 217.304C128.087 215.108 127.035 212.872 125.49 211.267C123.945 209.662 121.95 208.577 119.989 207.516L101.348 197.436C99.7222 196.557 98.0309 195.619 97.0133 194.08C95.7974 192.24 95.7655 189.892 95.7746 187.688L95.8554 168.177C95.8828 161.549 95.5531 154.07 90.6156 149.634C94.2792 155.259 95.228 162.223 95.254 168.931C95.2638 171.459 95.1562 173.989 95.0487 176.518V176.518V176.518V176.518V176.518V176.518V176.518V176.518V176.518V176.519V176.519V176.519V176.519V176.519V176.519V176.519V176.519V176.519V176.519V176.519V176.519V176.519V176.519V176.519V176.52V176.52V176.52V176.52V176.52C94.8709 180.7 94.6932 184.877 95.0459 189.041C95.2129 191.013 95.5283 193.055 96.6472 194.689C97.5477 196.004 98.8934 196.942 100.243 197.792C103.446 199.809 106.853 201.509 110.256 203.206L110.256 203.206L110.256 203.206L110.256 203.206L110.256 203.206L110.256 203.206L110.256 203.206L110.256 203.206L110.257 203.207L110.257 203.207L110.257 203.207L110.257 203.207L110.257 203.207L110.257 203.207L110.257 203.207C115.592 205.868 120.916 208.523 125.417 212.386C126.554 213.362 127.4 215.581 125.953 215.973C111.516 219.881 97.2574 224.444 83.236 229.643C82.151 230.046 81.0326 229.21 80.1772 228.432L57.6658 207.957C56.8536 207.218 55.4419 207.704 54.8535 208.63C54.265 209.556 54.2645 210.724 54.2831 211.82L55.0117 254.988C53.4882 253.521 53.2759 251.198 53.1736 249.089C52.6923 239.163 52.5798 229.22 52.4674 219.279C52.3048 204.908 52.1423 190.54 50.8656 176.231C50.5114 172.26 49.9576 168.024 47.3332 165.018C49.4007 170.267 50.0083 175.962 50.428 181.586C51.3032 193.317 51.4448 205.083 51.5864 216.85V216.85C51.7272 228.553 51.868 240.257 52.7307 251.925C52.811 253.011 52.9558 254.216 53.7868 254.922C54.6178 255.628 56.301 255.188 56.2194 254.102C55.1457 239.814 54.9166 225.463 55.5335 211.148L76.6359 230.571C77.7205 231.569 78.8855 232.737 78.9173 234.208C79.1723 246.024 79.7125 257.834 80.5372 269.624C80.6173 270.77 80.7592 272.039 81.6254 272.795C82.4916 273.551 84.2689 273.124 84.2139 271.977L82.3496 233.148L122.46 221.144C122.146 236.388 122.737 251.634 123.328 266.869C123.372 268 123.47 269.255 124.299 270.028C125.128 270.801 126.894 270.434 126.872 269.303ZM78.8637 231.849L56.0113 210.152C55.6212 209.782 55.1992 209.232 55.4691 208.767C55.8297 208.146 56.7812 208.582 57.3138 209.064L81.5779 231.054C96.388 225.763 111.381 220.982 126.522 216.722C126.936 217.289 126.705 218.135 126.201 218.624C125.698 219.113 124.998 219.334 124.326 219.539L83.0454 232.127C82.5257 232.285 81.9599 232.478 81.6799 232.943C81.4596 233.308 81.4679 233.762 81.4839 234.188C81.6565 238.788 81.9495 243.385 82.2425 247.982V247.982V247.982V247.982V247.983V247.983V247.983V247.983V247.983V247.983V247.983V247.983C82.7759 256.354 83.3093 264.724 83.1155 273.105C80.6244 268.736 80.4701 263.47 80.3789 258.445L79.9654 235.661C79.9407 234.301 79.8513 232.786 78.8637 231.849ZM50.2826 139.553C50.1183 139.657 49.92 139.693 49.7265 139.694C49.142 139.698 48.5417 139.349 48.3415 138.79C48.1414 138.232 48.4455 137.51 49.0108 137.359C49.4453 137.243 49.9099 137.463 50.2267 137.787C50.6961 138.268 50.848 139.195 50.2826 139.553ZM49.4784 138.055C49.109 137.964 48.87 138.56 49.1231 138.849C49.3762 139.137 49.8423 139.108 50.1766 138.924L49.4895 138.069L49.4784 138.055ZM88.7635 130.251L87.87 129.566C87.6921 129.429 87.5003 129.287 87.2829 129.281C86.9178 129.27 86.6251 129.676 86.62 130.075C86.6149 130.473 86.8289 130.839 87.0908 131.117C87.4587 131.507 88.0035 131.777 88.4847 131.583C88.9658 131.389 89.183 130.573 88.7635 130.251ZM87.1832 130.266C87.2751 130.044 87.6146 130.025 87.7267 130.236L87.7746 130.28C88.1364 130.32 88.4248 130.734 88.3638 131.125C87.8872 131.024 87.452 130.707 87.1832 130.266ZM73.0762 146.391C72.9343 146.121 72.8409 145.799 72.9253 145.504C73.0986 144.896 73.9118 144.762 74.4569 145.037C75.1558 145.39 75.5597 146.48 74.9886 147.03C74.4207 147.577 73.4479 147.1 73.0762 146.391ZM73.9123 146.411L74.4472 146.659C74.6999 146.436 74.6697 145.954 74.3914 145.769C74.1131 145.583 73.6838 145.758 73.5987 146.092L73.912 146.411L73.9123 146.411ZM74.7093 139.596C74.9293 139.093 74.6541 138.509 74.2013 138.142C73.9367 137.928 73.5834 137.763 73.2253 137.808C72.704 137.874 72.3728 138.383 72.4254 138.838C72.4779 139.293 72.8189 139.685 73.2045 139.997C73.6577 140.363 74.4893 140.098 74.7093 139.596ZM73.6683 138.511C73.8658 138.61 73.974 138.801 74.0576 138.985L74.0319 139.065C74.3337 139.153 74.0822 139.613 73.767 139.573C73.4518 139.533 73.2706 139.247 73.1502 138.991C73.0987 138.881 73.0488 138.76 73.0919 138.648C73.1641 138.46 73.4708 138.412 73.6683 138.511ZM83.547 145.571C83.2974 145.172 83.1916 144.605 83.4793 144.236C83.9245 143.665 84.8246 144.05 85.295 144.599C85.4773 144.811 85.6454 145.059 85.6703 145.344C85.7149 145.855 85.2398 146.307 84.7526 146.32C84.2653 146.334 83.8153 145.999 83.547 145.571ZM84.7133 145.001L84.2465 144.664C84.0557 144.847 84.0188 145.183 84.1648 145.407C84.3108 145.631 84.6211 145.716 84.8521 145.595C85.0122 145.427 84.9223 145.086 84.7031 145.029L84.7133 145.001ZM79.1745 127.172C79.0473 127.345 79.0355 127.566 79.0528 127.773C79.0943 128.269 79.3026 128.78 79.7441 129.074C80.1856 129.369 80.8878 129.361 81.2248 128.969C81.6581 128.466 81.2783 127.711 80.7503 127.288C80.3014 126.928 79.507 126.72 79.1745 127.172ZM79.9183 127.702C80.1388 127.548 80.5478 127.748 80.4587 127.987L80.6037 128.026C80.7254 128.255 80.7215 128.535 80.5935 128.762C80.3294 128.682 80.0562 128.581 79.886 128.382C79.7158 128.182 79.6978 127.856 79.9183 127.702ZM40.8209 140.063C41.1423 139.564 41.9405 139.621 42.4512 139.94C42.9435 140.247 43.3044 140.953 42.8964 141.359C42.689 141.566 42.3604 141.605 42.0637 141.582C41.6637 141.55 41.2552 141.419 40.9819 141.135C40.7087 140.85 40.6087 140.392 40.8209 140.063ZM41.8985 140.337L41.391 140.581C41.5886 140.905 42.0267 141.072 42.3997 140.965C42.4521 140.693 42.2129 140.405 41.9277 140.396L41.8985 140.337ZM58.6523 134.753C59.0894 135.058 59.6946 135.004 60.1578 134.743C60.3328 134.645 60.5028 134.507 60.563 134.311C60.6763 133.943 60.3601 133.587 60.0431 133.381C59.546 133.057 58.8214 132.896 58.4201 133.338C58.0597 133.735 58.2152 134.448 58.6523 134.753ZM58.8373 133.984C58.813 133.764 59.1167 133.572 59.2599 133.737L59.2874 133.684C59.5426 133.68 59.7937 133.84 59.9032 134.077C59.7215 134.195 59.5295 134.317 59.3152 134.329C59.1008 134.342 58.8616 134.204 58.8373 133.984ZM54.8312 153.106C55.2712 152.796 55.966 152.959 56.2228 153.432C56.4795 153.905 56.238 154.577 55.739 154.778C55.3082 154.951 54.7626 154.755 54.5409 154.346C54.3192 153.938 54.4514 153.373 54.8312 153.106ZM55.6763 154.227C55.7802 153.872 55.4436 153.466 55.0758 153.503C54.9775 153.866 55.283 154.279 55.6583 154.292L55.6763 154.227ZM47.1045 156.382C46.893 156.561 46.8458 156.896 46.8632 157.193C46.9111 158.013 47.6153 158.895 48.2787 158.551C48.6599 158.353 48.8317 157.802 48.7193 157.347C48.6068 156.893 48.2627 156.543 47.8747 156.363C47.6262 156.248 47.3195 156.2 47.1045 156.382ZM47.9136 157.128C48.1398 157.192 48.2443 157.554 48.0951 157.756L48.2518 157.961C47.9466 158.013 47.5463 157.922 47.4867 157.582C47.4416 157.324 47.6874 157.063 47.9136 157.128ZM45.6871 150.736C45.5917 150.842 45.4722 150.927 45.3401 150.981C45.1049 151.079 44.8302 151.078 44.5953 150.98C44.0987 150.772 43.8665 150.102 44.1292 149.634C44.3919 149.167 45.0885 149.012 45.5275 149.322C45.9665 149.632 46.046 150.337 45.6871 150.736ZM45.193 150.622C45.5016 150.394 45.2933 149.795 44.9087 149.805C44.7372 149.908 44.6077 150.078 44.5542 150.27C44.7306 150.433 44.9506 150.55 45.1856 150.604L45.193 150.622ZM92.754 143.103C92.6315 142.679 92.4297 142.183 91.9386 142.078C91.4116 141.965 90.9108 142.435 90.8815 142.903C90.8519 143.375 91.2287 143.87 91.769 143.946C92.3093 144.022 92.8865 143.561 92.754 143.103ZM91.9846 142.959C92.1421 143.141 91.9251 143.45 91.6655 143.414L91.6959 143.325C91.527 143.287 91.44 143.089 91.5382 142.964C91.6364 142.84 91.8827 142.837 91.9846 142.959ZM89.0035 136.126C88.8777 135.521 89.473 134.883 90.0849 134.968C90.7833 135.066 91.1405 136.075 90.6589 136.591C90.1772 137.107 89.1471 136.818 89.0035 136.126ZM89.8496 136.403C90.117 136.465 90.4144 136.218 90.3863 135.945C90.3582 135.671 89.9935 135.493 89.7694 135.652C89.5453 135.811 89.61 136.232 89.8755 136.303L89.8496 136.403ZM66.2283 148.412C66.1665 148.198 66.0326 148.007 65.8554 147.881C65.262 147.459 64.3028 148.054 64.3773 148.798C64.4518 149.543 65.5083 149.919 66.0053 149.379C66.2359 149.128 66.3243 148.745 66.2283 148.412ZM65.0382 148.901C64.9782 148.674 65.2141 148.425 65.4334 148.485C65.6527 148.544 65.7416 148.881 65.5823 149.049C65.423 149.217 65.0982 149.129 65.0382 148.901Z" fill="#00160A"/>
<path fill-rule="evenodd" clip-rule="evenodd" d="M274.212 125.617C274.313 125.692 274.379 125.795 274.429 125.902C274.654 126.382 274.516 127.012 274.002 127.284C273.489 127.555 272.661 127.265 272.64 126.747C272.634 126.582 272.702 126.421 272.779 126.27C272.906 126.021 273.069 125.773 273.33 125.62C273.592 125.468 273.974 125.438 274.212 125.617ZM273.87 126.392C274.028 126.349 273.978 126.097 273.813 126.101C273.387 126.212 273.189 126.721 273.451 127.029C273.661 126.859 273.809 126.634 273.869 126.391L273.87 126.392ZM293.498 133.967C293.888 134.109 294.326 133.907 294.649 133.658C295.003 133.384 295.312 133.019 295.356 132.592C295.4 132.165 295.091 131.691 294.634 131.65C294.313 131.622 294.015 131.799 293.766 131.99C293.432 132.246 293.122 132.561 293.021 132.953C292.92 133.344 293.096 133.82 293.498 133.967ZM294.945 132.488L294.06 133.311L294.042 133.34L293.699 133.112C293.808 132.858 293.928 132.59 294.163 132.426C294.398 132.262 294.787 132.257 294.945 132.488ZM303.14 138.567C302.793 138.222 302.936 137.607 303.178 137.173C303.352 136.86 303.583 136.556 303.906 136.43C304.229 136.303 304.658 136.424 304.785 136.762C304.865 136.972 304.815 137.21 304.757 137.428C304.651 137.826 304.507 138.235 304.211 138.505C303.914 138.776 303.425 138.851 303.14 138.567ZM304.319 137.363C304.353 137.293 304.384 137.214 304.371 137.136C304.358 137.055 304.294 136.986 304.218 136.97C303.731 137.114 303.398 137.689 303.499 138.212C303.849 138.032 304.142 137.729 304.319 137.363ZM299.91 146.657C300.427 147.057 301.161 146.508 301.477 145.943C301.69 145.561 301.849 145.152 301.95 144.729C302.012 144.467 302.019 144.13 301.778 144.001C301.662 143.939 301.52 143.949 301.389 143.972C300.515 144.126 299.78 144.859 299.64 145.716C299.585 146.054 299.636 146.445 299.91 146.657ZM301.351 144.788C301.393 144.918 301.3 145.05 301.213 145.157L300.328 146.238C300.175 145.601 300.563 144.883 301.188 144.646C301.263 144.66 301.328 144.717 301.351 144.788ZM224.545 212.267C224.068 213.404 224.531 215.013 225.736 215.287C237.982 218.064 250.073 221.521 261.934 225.637C265.863 227.001 270.239 228.431 274.057 226.781C275.54 226.14 276.795 225.08 278.026 224.035L290.865 213.138C286.561 218.904 281.236 223.91 275.211 227.856C273.77 228.8 272.244 229.701 270.544 229.995C268.429 230.361 266.281 229.752 264.221 229.149L228.17 218.593C226.73 218.172 224.926 216.789 225.846 215.606C224.655 216.045 224.743 217.734 225.054 218.96L264.054 230.323C265.902 230.861 267.818 231.405 269.725 231.14C271.619 230.877 273.305 229.841 274.908 228.801C281.728 224.374 288.409 219.177 292.186 211.989C292.296 211.78 292.406 211.566 292.517 211.351C293.506 209.43 294.558 207.386 296.549 206.651C296.892 222.778 296.636 238.918 295.781 255.026C295.723 256.106 297.418 256.491 298.214 255.755C299.009 255.02 299.099 253.817 299.135 252.736L301.212 190.354C301.504 181.585 301.871 172.508 305.773 164.644C301.184 171.8 300.777 180.756 300.508 189.246L298.531 251.767C298.482 253.317 298.219 255.196 296.783 255.792L297.542 205.937C295.118 205.719 293.385 208.088 291.947 210.054L291.92 210.091C287.746 215.798 281.885 220.011 276.127 224.124C273.7 225.857 270.732 227.677 267.926 226.662C253.935 221.597 239.669 217.291 225.21 213.766C227.063 211.038 229.828 209.075 232.61 207.298C237.599 204.11 242.842 201.319 248.274 198.96C248.401 198.906 248.528 198.851 248.655 198.796C251.173 197.706 253.794 196.572 255.457 194.411C257.696 191.505 257.643 187.511 257.55 183.848C257.421 178.816 257.403 173.781 257.497 168.748C257.625 161.884 258.026 154.767 261.225 148.687C257.525 151.939 257.162 157.463 257.067 162.38L256.603 186.483C256.544 189.492 256.327 192.868 254.078 194.876C253.232 195.631 252.179 196.105 251.143 196.571L251.071 196.603C242.769 200.342 234.759 204.726 227.138 209.703C226.104 210.378 225.022 211.129 224.545 212.267ZM268.342 272.661C267.772 273.155 266.575 272.888 266.615 272.153C267.346 258.809 268.157 245.468 269.047 232.132C268.652 231.878 268.296 232.508 268.268 232.962L266.124 267.375C266.011 269.173 265.901 270.994 266.247 272.765C266.448 273.786 268.1 273.918 268.861 273.176C269.622 272.433 269.718 271.295 269.77 270.257L271.692 232.107C271.716 231.622 271.486 230.927 270.999 231.065L269.023 270.615C268.987 271.35 268.911 272.166 268.342 272.661ZM229.093 220.656L227.581 266.467C227.548 267.459 226.021 267.804 225.225 267.184C224.429 266.564 224.226 265.481 224.119 264.494C223.623 259.893 224.017 255.26 224.41 250.643C224.471 249.929 224.532 249.215 224.589 248.502C225.328 239.332 225.515 230.12 225.149 220.93C225.138 220.662 225.563 220.567 225.768 220.745C225.973 220.923 226.004 221.219 226.02 221.486C226.548 230.386 225.928 239.29 225.309 248.195L225.309 248.195L225.309 248.195C225.069 251.641 224.829 255.087 224.656 258.533C224.538 260.881 224.455 263.272 225.068 265.546C225.189 265.994 225.366 266.473 225.773 266.713C226.181 266.952 226.856 266.749 226.871 266.286L228.353 221.639C228.369 221.164 228.63 220.506 229.093 220.656ZM308.542 148.234C308.641 148.212 308.747 148.2 308.839 148.245C308.989 148.318 309.053 148.514 309.075 148.694C309.173 149.505 308.658 150.351 307.943 150.554C307.638 150.64 307.212 150.521 307.196 150.172C307.153 149.285 307.758 148.415 308.542 148.234ZM308.451 149.384C308.593 149.246 308.655 149.015 308.604 148.814C308.129 148.931 307.751 149.428 307.728 149.967C308.031 149.913 308.306 149.693 308.448 149.392L308.451 149.384ZM280.067 144.551C279.979 144.395 279.856 144.258 279.71 144.155C279.205 143.8 278.427 143.929 278.062 144.428C277.698 144.927 277.809 145.711 278.297 146.088C278.786 146.466 279.569 146.372 279.955 145.89C280.252 145.52 280.298 144.966 280.067 144.551ZM279.215 145.646C278.86 145.7 278.528 145.283 278.659 144.947C278.79 144.611 279.315 144.531 279.539 144.813C279.764 145.094 279.57 145.591 279.215 145.646ZM306.004 154.904C306.122 154.963 306.227 155.074 306.244 155.212C306.256 155.31 306.224 155.407 306.192 155.499L306.022 155.998C305.906 156.335 305.784 156.684 305.543 156.934C305.303 157.185 304.908 157.305 304.624 157.112C304.134 156.779 304.389 155.961 304.757 155.482C305.067 155.078 305.56 154.684 306.004 154.904ZM305.386 156.185C305.564 156.017 305.633 155.728 305.551 155.49C305.063 155.636 304.77 156.286 304.97 156.783L305.401 156.204L305.386 156.185ZM289.057 146.657C289.018 146.567 288.969 146.479 288.895 146.417C288.656 146.216 288.292 146.364 288.044 146.554C287.725 146.798 287.443 147.12 287.345 147.513C287.247 147.906 287.375 148.373 287.718 148.582C288.314 148.946 289.095 148.302 289.191 147.605C289.235 147.285 289.188 146.952 289.057 146.657ZM288.063 148.102C287.831 148.008 287.798 147.625 288.01 147.491L288.005 147.492L288.541 146.967C288.746 147.386 288.503 147.961 288.063 148.102ZM269.526 143.676C269.406 143.798 269.253 143.887 269.088 143.93C268.412 144.106 267.708 143.298 267.958 142.634C268.209 141.97 269.262 141.851 269.648 142.444C269.891 142.816 269.837 143.361 269.526 143.676ZM268.979 142.659C268.757 142.618 268.523 142.815 268.521 143.045C268.519 143.275 268.749 143.477 268.971 143.441C269.21 143.228 269.245 142.818 269.046 142.567L268.979 142.659ZM312.05 141.521C312.548 141.261 312.769 140.587 312.866 139.966C312.952 139.412 312.271 139.051 311.835 139.302C311.399 139.554 311.189 140.124 311.013 140.649C310.815 141.237 311.551 141.78 312.05 141.521ZM312.158 139.826C312.352 139.883 312.399 140.244 312.228 140.364L312.228 140.359C312.213 140.668 311.928 140.92 311.666 140.857C311.677 140.45 311.866 140.055 312.158 139.826ZM290.902 142.061C290.399 142.059 290.055 141.385 290.179 140.84C290.303 140.295 290.755 139.912 291.229 139.725C291.569 139.59 291.949 139.92 292.026 140.314C292.103 140.707 291.952 141.114 291.746 141.445C291.546 141.765 291.252 142.062 290.902 142.061ZM291.457 140.878L291.514 140.452C291.052 140.365 290.59 140.901 290.685 141.414C290.78 141.488 290.904 141.516 291.017 141.487C291.107 141.252 291.25 141.041 291.429 140.881L291.457 140.878ZM280.07 138.747C280.596 138.758 280.963 138.307 281.098 137.885C281.203 137.56 281.202 137.154 280.876 136.954C280.512 136.73 279.977 136.914 279.672 137.192C279.401 137.439 279.221 137.773 279.277 138.104C279.332 138.434 279.668 138.739 280.07 138.747ZM280.289 137.423C280.496 137.359 280.7 137.631 280.539 137.757L280.525 137.735C280.446 137.926 280.29 138.096 280.089 138.21C279.883 137.963 279.981 137.58 280.289 137.423ZM299.602 152.01C299.619 151.923 299.633 151.831 299.601 151.748C299.551 151.621 299.408 151.557 299.273 151.537C298.691 151.451 298.184 151.953 297.912 152.473C297.671 152.933 297.606 153.636 298.082 153.846C298.539 154.047 299.007 153.578 299.225 153.13C299.398 152.775 299.525 152.398 299.602 152.01ZM298.507 152.774C298.418 152.622 298.506 152.398 298.675 152.345L298.657 152.359C298.782 152.347 298.873 152.508 298.824 152.624C298.774 152.739 298.631 152.792 298.507 152.774ZM284.385 130.576C284.103 130.837 283.79 131.079 283.428 131.17C283.315 131.199 283.229 131.063 283.188 130.945C282.961 130.299 282.996 129.475 283.482 129.025C283.968 128.576 284.919 128.857 284.946 129.548C284.962 129.96 284.675 130.307 284.385 130.576ZM284.266 129.419C283.832 129.387 283.527 129.972 283.656 130.422C284.042 130.302 284.325 129.871 284.303 129.436L284.266 129.419ZM271.691 133.765C271.672 133.43 271.44 133.088 271.125 133.068C270.87 133.052 270.64 133.245 270.493 133.468C270.264 133.817 270.181 134.313 270.405 134.667C270.629 135.02 271.208 135.079 271.411 134.712C271.571 134.422 271.711 134.1 271.691 133.765ZM270.816 134.556L270.777 134.104L270.784 134.099C270.845 133.903 270.971 133.732 271.135 133.622C271.293 133.953 271.137 134.411 270.816 134.556ZM261.644 140.463C261.862 140.826 261.72 141.317 261.517 141.689C261.447 141.816 261.366 141.944 261.246 142.012C260.991 142.155 260.675 141.963 260.513 141.703C260.274 141.322 260.262 140.758 260.547 140.417C260.832 140.076 261.412 140.077 261.644 140.463ZM260.853 141.033C260.853 141.165 260.997 141.269 261.107 141.216C261.217 141.162 261.244 140.975 261.155 140.886C261.063 140.817 260.914 140.914 260.925 141.036L260.853 141.033ZM263.853 134.014C264.316 134.033 264.71 133.503 264.561 133.061C264.526 132.955 264.464 132.857 264.385 132.778C264.054 132.452 263.408 132.579 263.223 133.006C263.039 133.434 263.389 133.995 263.853 134.014ZM263.96 133.045C264.168 133.049 264.031 133.437 263.827 133.396L263.83 133.404C263.75 133.28 263.82 133.088 263.96 133.045Z" fill="#00160A"/>
<path fill-rule="evenodd" clip-rule="evenodd" d="M308.891 132.259C311.417 133.122 314.046 134.049 315.892 135.988C318.206 138.416 318.872 142.072 318.421 145.408C317.97 148.743 316.544 151.853 315.135 154.905C313.542 158.355 311.95 161.805 310.357 165.254C305.107 162.71 300.592 158.871 295.57 155.895C284.615 149.402 271.529 147.238 258.832 147.836C257.764 147.887 256.376 147.735 256.113 146.691C256.035 146.38 256.087 146.053 256.141 145.737C257.367 138.605 259.753 131.677 263.175 125.313C263.682 124.37 264.219 123.428 264.958 122.654C266.662 120.868 269.264 120.19 271.721 120.299C274.178 120.407 276.546 121.21 278.875 122.006C288.88 125.424 298.886 128.842 308.891 132.259ZM263.247 126.748C260.265 132.752 257.771 139.115 257.084 145.793C257.055 146.081 257.032 146.388 257.165 146.644C257.436 147.162 258.149 147.188 258.729 147.15C272.158 146.265 286.038 148.908 297.431 156.123C301.326 158.59 304.903 161.562 308.942 163.78C309.12 163.878 309.323 163.977 309.518 163.92C309.714 163.863 309.832 163.667 309.932 163.487C312.386 159.025 314.56 154.407 316.436 149.669C317.101 147.989 317.735 146.269 317.9 144.468C318.315 139.935 315.332 135.309 311.053 133.848C300.083 130.103 289.114 126.358 278.145 122.613C276.14 121.929 274.108 121.239 271.996 121.086C269.885 120.933 267.649 121.375 266.021 122.738C264.768 123.787 263.976 125.28 263.247 126.748Z" fill="#00160A"/>
<path fill-rule="evenodd" clip-rule="evenodd" d="M174.113 154.892C173.468 155.254 172.629 154.694 172.385 154.001C172.194 153.46 172.238 152.88 172.281 152.303C172.294 152.14 172.306 151.976 172.313 151.814C172.379 150.281 171.952 148.79 171.527 147.303C171.394 146.84 171.262 146.377 171.144 145.913C169.192 138.202 171.649 129.546 177.373 123.975C178.106 125.369 180.062 125.736 181.55 125.193C183.039 124.649 184.164 123.441 185.221 122.268C186.277 121.096 187.384 119.877 188.86 119.3C187.756 119.112 186.606 119.188 185.537 119.519C185.372 118.02 183.788 116.83 182.287 117.078C181.262 117.247 180.448 116.287 179.81 115.474C179.172 114.662 178.152 113.814 177.213 114.255C178.42 114.978 178.324 116.756 177.815 118.06C177.722 118.297 177.62 118.537 177.518 118.778C177.059 119.856 176.589 120.961 176.875 122.069C177.146 123.122 176.286 124.095 175.549 124.9C171.409 129.421 169.183 135.61 169.505 141.706C168.287 140.068 166.74 138.671 164.981 137.622C164.654 137.426 164.315 137.24 163.977 137.053C162.776 136.392 161.567 135.726 160.784 134.628C159.862 133.333 158.154 132.773 156.555 132.821C154.956 132.869 153.425 133.433 151.927 133.99C151.511 134.145 151.027 134.386 150.995 134.825C150.971 135.152 151.222 135.43 151.469 135.649C153.832 137.739 157.516 138.21 160.337 136.783C161.364 136.264 162.607 136.763 163.59 137.36C169.297 140.828 172.495 147.937 171.283 154.46C170.33 154.816 169.307 154.769 168.278 154.721C167.712 154.695 167.145 154.669 166.586 154.71C165.013 154.825 163.213 155.965 163.489 157.504C164.128 161.07 164.767 164.736 164.06 168.289C163.855 169.32 163.539 170.324 163.223 171.328C162.996 172.052 162.768 172.775 162.582 173.509C162.115 175.35 161.909 177.255 161.972 179.152C161.989 179.661 162.031 180.189 162.286 180.631C162.663 181.282 163.419 181.61 164.137 181.849C166.455 182.619 168.934 182.911 171.37 182.701C173.212 182.542 175.288 181.891 175.987 180.195C176.429 179.124 176.196 177.912 175.973 176.777C174.912 171.382 174.237 165.67 176.097 160.492C176.161 160.314 176.228 160.134 176.296 159.954C176.693 158.896 177.099 157.814 176.926 156.712C176.724 155.423 175.259 154.249 174.113 154.892ZM168.997 171.227L167.508 174.388C167.334 174.759 167.228 175.323 167.612 175.472C168.649 174.026 169.386 172.371 169.764 170.637C169.903 170 170.481 169.526 171.107 169.325C171.734 169.124 172.409 169.15 173.066 169.193C173.435 169.216 173.842 169.262 174.09 169.534C174.287 169.749 174.334 170.057 174.372 170.345L175.404 178.038C175.495 178.714 175.581 179.426 175.322 180.058C174.885 181.126 173.632 181.598 172.491 181.82C169.685 182.366 166.723 182.095 164.065 181.05C163.69 180.903 163.307 180.729 163.053 180.418C162.715 180.004 162.674 179.431 162.667 178.898C162.622 175.448 163.414 171.989 164.957 168.896L168.559 170.202C168.778 170.281 169.021 170.383 169.105 170.599C169.185 170.803 169.09 171.029 168.997 171.227ZM169.289 169.395C169.051 169.666 168.599 169.787 168.323 169.554C167.386 168.759 166.084 168.405 164.868 168.612C165.304 166.038 164.981 163.436 164.657 160.829C164.503 159.587 164.348 158.343 164.276 157.101C164.267 156.956 164.263 156.798 164.348 156.679C164.486 156.485 164.774 156.493 165.013 156.523L170.687 157.228C170.881 157.253 171.082 157.279 171.249 157.381C171.719 157.669 171.67 158.349 171.564 158.886L169.674 168.402C169.605 168.754 169.526 169.124 169.289 169.395ZM170.626 167.149C171.482 163.871 172.064 160.523 172.365 157.15C173.755 157.378 175.226 157.085 176.419 156.342C176.181 157.457 175.883 158.566 175.586 159.674C174.878 162.308 174.171 164.94 174.268 167.647L174.269 167.672C174.277 167.901 174.285 168.139 174.191 168.347C174.093 168.564 173.843 168.733 173.617 168.657C172.56 168.302 171.333 168.49 170.434 169.146C170.275 168.496 170.452 167.818 170.621 167.17L170.626 167.149ZM178.037 123.431C177.436 122.551 177.312 121.395 177.611 120.376C177.751 119.899 177.978 119.432 178.203 118.968C178.654 118.037 179.099 117.119 178.829 116.161C178.751 115.885 178.659 115.502 178.923 115.384C179.967 116.284 180.654 117.581 180.809 118.945C180.854 119.343 180.847 119.774 180.626 120.109C180.409 120.438 180.04 120.606 179.672 120.773C179.542 120.832 179.413 120.891 179.291 120.956C178.82 121.209 178.386 121.77 178.649 122.232C180.915 120.58 183.819 119.809 186.616 120.118C185.867 120.59 185.178 121.156 184.571 121.798C184.36 122.021 184.152 122.257 183.943 122.494C183.042 123.519 182.115 124.572 180.794 124.735C179.73 124.866 178.637 124.31 178.037 123.431ZM156.321 133.475C157.998 133.392 159.914 134.402 160.675 135.466L158.883 136.535C156.88 137.362 155.898 137.054 155.435 136.908C155.411 136.901 155.388 136.893 155.366 136.887C154.002 136.472 152.709 135.827 151.56 134.989C153.065 134.252 154.644 133.558 156.321 133.475ZM184.583 119.236C184.499 119.35 184.348 119.39 184.208 119.422L181.91 119.953C181.799 119.978 181.681 120.004 181.574 119.967C181.29 119.869 181.311 119.463 181.422 119.186C181.534 118.91 181.67 118.565 181.467 118.345C181.222 118.078 181.679 117.723 182.042 117.696C182.9 117.631 183.781 117.955 184.389 118.558C184.572 118.74 184.736 119.029 184.583 119.236ZM171.527 155.887C171.721 156.109 171.608 156.563 171.312 156.548C169.492 156.45 167.681 156.174 165.916 155.725C167.477 155.36 169.108 155.481 170.708 155.603C171.004 155.626 171.332 155.664 171.527 155.887ZM175.616 155.691C175.696 155.872 175.584 156.112 175.393 156.169C174.446 156.451 173.465 156.62 172.478 156.672C172.225 156.507 172.299 156.086 172.542 155.904C172.784 155.723 173.111 155.713 173.415 155.71L175.616 155.691ZM180.292 173.237C194.043 173.34 208.508 173.631 220.394 180.643C221.535 181.316 221.549 183.108 220.753 184.175C219.957 185.243 218.645 185.753 217.393 186.176C213.441 187.509 209.37 188.477 205.247 189.064C201.347 189.619 197.41 189.834 193.476 190.012C170.525 191.047 147.235 190.791 124.999 184.934C124.908 184.119 125.633 183.47 126.298 183.003C136.434 175.867 149.103 173.781 161.3 171.881C148.53 172.286 135.873 175.928 124.797 182.385C123.366 183.22 121.749 184.597 122.196 186.208C122.564 187.534 124.106 188.058 125.429 188.365C147.914 193.592 171.196 195.282 194.186 193.357C197.083 193.114 199.976 192.815 202.865 192.487C210.301 191.644 218.112 190.451 223.988 185.756C224.491 185.355 224.997 184.899 225.204 184.286C225.755 182.65 223.991 181.231 222.462 180.467C209.493 173.986 194.641 171.439 180.292 173.237ZM223.929 182.329C224.663 183.261 224.664 184.881 223.632 185.452C220.266 187.316 216.847 189.176 213.137 190.163C211.173 190.685 209.153 190.955 207.139 191.213C203.228 191.714 199.31 192.173 195.383 192.527C171.59 194.671 147.459 192.92 124.21 187.363C123.125 187.103 122.657 185.644 123.109 184.611C123.464 183.8 124.203 183.246 125.027 182.906C124.455 183.384 124.302 184.487 124.784 185.163C125.424 186.061 126.6 186.339 127.672 186.548C140.376 189.021 153.233 190.871 166.165 191.165C170.311 191.26 174.458 191.194 178.604 191.129C190.833 190.935 203.186 190.726 215.059 187.75C217.46 187.148 219.976 186.344 221.578 184.433C221.882 184.07 222.155 183.654 222.223 183.182C222.369 182.187 221.601 181.319 220.892 180.616C222.011 180.985 223.194 181.398 223.929 182.329ZM125.715 182.674C125.446 182.66 125.214 182.749 125.027 182.906C125.252 182.813 125.483 182.736 125.715 182.674ZM126.46 182.285C126.273 182.327 126.052 182.104 126.167 181.949L126.262 182.05C126.348 181.821 126.677 181.734 126.861 181.892C126.764 182.059 126.646 182.242 126.46 182.285ZM204.296 268.067C205.292 271.218 207.731 274.173 210.967 274.585C212.137 274.734 213.016 273.014 212.223 272.13C211.429 271.245 209.658 271.972 209.695 273.167C207.661 272.359 206.236 270.408 205.516 268.315C204.797 266.223 204.685 263.973 204.58 261.76L204.152 252.775C204.008 249.758 203.741 246.444 201.638 244.306C201.182 243.841 200.655 243.454 200.129 243.066L200.128 243.066L200.128 243.066L200.128 243.066L200.128 243.066C199.454 242.57 198.782 242.075 198.261 241.422C197.041 239.893 196.863 237.788 196.802 235.822C196.464 225 198.118 214.118 201.651 203.902C201.883 203.232 202.123 202.564 202.363 201.896C203.331 199.201 204.3 196.501 204.733 193.673C204.189 193.533 203.809 194.201 203.637 194.743L200.152 205.687C199.243 208.542 198.333 211.401 197.657 214.322C196.067 221.187 195.79 228.284 195.52 235.33C195.455 237.032 195.408 238.822 196.177 240.335C196.734 241.43 197.65 242.249 198.57 243.072C199.237 243.668 199.907 244.268 200.444 244.976C201.631 246.54 202.097 248.535 202.437 250.478C202.885 253.04 203.166 255.632 203.278 258.231C203.306 258.863 203.323 259.498 203.341 260.133C203.415 262.821 203.49 265.52 204.296 268.067ZM210.467 272.81C210.565 272.431 211.138 272.296 211.382 272.599L211.447 272.544C211.688 272.849 211.525 273.387 211.152 273.488C210.779 273.59 210.368 273.188 210.467 272.81ZM135.861 277.313C135.703 276.297 136.882 275.633 137.873 275.432L137.993 275.408C138.959 275.214 140.082 274.989 140.439 274.072C141.877 270.382 141.953 266.306 142.029 262.254C142.118 257.45 142.207 252.681 144.566 248.632C145.697 246.69 147.287 245.063 148.993 243.621C149.05 243.573 149.108 243.524 149.166 243.476C149.239 243.415 149.312 243.354 149.385 243.292L149.387 243.291L149.388 243.29C150.771 242.134 152.219 240.923 152.705 239.192C152.976 238.225 152.91 237.198 152.842 236.195L151.525 216.795C151.357 214.318 151.189 211.839 150.855 209.38C150.171 204.341 148.798 199.424 147.212 194.601C148.461 195.317 149.025 196.818 149.44 198.215C151.834 206.274 152.393 214.762 152.936 223.163L153.787 236.322C153.943 238.728 153.811 241.688 151.707 242.795C148.367 244.553 145.71 247.616 144.41 251.208C143.163 254.654 143.162 258.379 143.161 262.078C143.161 262.915 143.16 263.752 143.145 264.583C143.066 269.086 142.39 273.926 139.356 277.203C138.856 277.743 138.258 278.25 137.538 278.363C136.818 278.476 135.976 278.045 135.861 277.313ZM136.526 277.287C136.491 277.501 136.704 277.69 136.917 277.705C137.129 277.72 137.33 277.613 137.513 277.502C138.098 277.147 138.638 276.714 139.114 276.219C138.743 275.935 138.215 275.944 137.788 276.131C137.362 276.317 137.018 276.654 136.7 276.999C136.623 277.082 136.544 277.174 136.526 277.287ZM178.452 245.721C178.374 251.973 179.185 258.197 179.994 264.395C180.219 266.121 180.452 267.876 181.159 269.463C181.479 270.181 182.106 270.957 182.863 270.783C183.1 270.728 183.308 270.583 183.484 270.414C184.172 269.752 184.385 268.529 183.738 267.824C183.092 267.119 181.633 267.489 181.59 268.451C180.324 261.646 179.515 254.753 179.169 247.837C179.131 247.067 179.049 246.196 178.452 245.721ZM183.235 268.304C183.268 268.436 183.197 268.569 183.128 268.686L182.569 269.636L182.199 269.565C182.157 269.184 182.24 268.791 182.43 268.46C182.607 268.152 183.148 267.959 183.235 268.304ZM178.565 234.433C178.373 232.353 178.451 230.258 178.545 228.17C179.031 217.344 179.921 206.537 181.214 195.78C181.245 195.522 181.306 195.221 181.538 195.113C182.019 194.888 182.285 195.694 182.225 196.231C180.785 209.114 179.836 222.057 179.491 235.02C179.484 235.304 179.061 235.396 178.849 235.212C178.636 235.028 178.591 234.717 178.565 234.433Z" fill="#00160A"/>
<path d="M184.208 245.526C181.331 245.331 178.454 245.136 175.577 244.941C171.609 244.673 167.63 244.402 163.728 243.643C161.003 243.114 158.326 242.346 155.738 241.354C155.456 241.246 155.163 241.126 154.974 240.893C154.613 240.448 154.793 239.746 155.211 239.353C155.63 238.961 156.214 238.801 156.775 238.666C168.632 235.808 181.081 237.648 193.091 239.798C194 239.961 194.936 240.136 195.709 240.636C196.482 241.137 197.058 242.051 196.871 242.946C196.652 243.996 195.537 244.595 194.506 244.926C191.214 245.982 187.661 245.76 184.208 245.526" fill="white"/>
<path fill-rule="evenodd" clip-rule="evenodd" d="M184.208 245.526C181.331 245.331 178.454 245.136 175.577 244.941C171.609 244.673 167.63 244.402 163.728 243.643C161.003 243.114 158.326 242.346 155.738 241.354C155.456 241.246 155.163 241.126 154.974 240.893C154.613 240.448 154.793 239.746 155.211 239.353C155.63 238.961 156.214 238.801 156.775 238.666C168.632 235.808 181.081 237.648 193.091 239.798C194 239.961 194.936 240.136 195.709 240.636C196.482 241.137 197.058 242.051 196.871 242.946C196.652 243.996 195.537 244.595 194.506 244.926C191.214 245.982 187.661 245.76 184.208 245.526M155.47 240.541C164.801 243.73 174.835 244.134 184.7 244.509C187.122 244.601 189.546 244.692 191.968 244.632C192.925 244.608 193.964 244.528 194.676 243.895C195.387 243.262 195.428 241.878 194.542 241.522C189.39 239.453 183.73 239.071 178.181 238.723C171.577 238.309 164.898 237.913 158.379 239.041C157.264 239.235 156.023 239.564 155.47 240.541Z" fill="#00160A"/>
<path fill-rule="evenodd" clip-rule="evenodd" d="M297.56 201.232C298.128 198.088 298.431 194.896 298.464 191.701C298.515 186.795 297.93 181.889 298.206 176.991C298.483 172.094 299.729 167.046 302.933 163.354C302.64 165.386 302.007 167.368 301.069 169.192C299.223 172.78 299.161 176.996 299.138 181.037C299.104 187.256 299.07 193.474 299.036 199.692C299.025 201.589 297.726 203.324 296.054 204.192C294.381 205.061 292.401 205.162 290.544 204.859C289.068 204.618 287.643 204.138 286.225 203.659C277.824 200.823 269.423 197.986 261.021 195.15C260.346 194.922 259.549 194.545 259.501 193.828C258.761 182.968 258.72 172.06 259.377 161.194C259.659 156.519 260.285 151.389 263.701 148.214C262.665 150.415 261.623 152.631 260.986 154.982C260.148 158.073 260.032 161.309 259.922 164.512C259.588 174.203 259.256 183.94 260.391 193.57C260.445 194.026 260.605 194.594 261.058 194.654C264.799 195.15 268.383 196.447 271.933 197.736C276.853 199.522 281.773 201.308 286.694 203.093C287.89 203.528 289.104 203.966 290.371 204.075C292.185 204.23 293.98 203.703 295.725 203.181C296.244 203.026 296.797 202.848 297.133 202.421C297.395 202.087 297.484 201.651 297.56 201.232Z" fill="#00160A"/>
<path fill-rule="evenodd" clip-rule="evenodd" d="M289.68 206.434C282.224 205.955 275.319 202.64 268.183 200.477C265.673 199.717 263.122 199.097 260.572 198.477C258.915 198.073 257.257 197.67 255.6 197.267C258.841 196.438 262.241 197.484 265.419 198.521C273.506 201.159 281.593 203.796 289.68 206.434Z" fill="#00160A"/>
<path fill-rule="evenodd" clip-rule="evenodd" d="M158.015 134.716C158.26 134.724 158.48 134.758 158.831 134.842L160.861 135.373C160.97 135.401 161.071 135.427 161.159 135.45C161.286 135.481 161.363 135.61 161.331 135.737C161.299 135.864 161.171 135.94 161.044 135.909L160.313 135.72L158.933 135.356L158.83 135.329C158.442 135.232 158.231 135.196 158 135.189L157.941 135.19C157.511 135.205 155.486 135.405 154.181 135.49C154.05 135.499 153.937 135.4 153.929 135.269C153.92 135.139 154.019 135.026 154.15 135.018L154.644 134.983C155.944 134.885 157.649 134.719 157.986 134.716L158.015 134.716Z" fill="#00160A"/>
<path fill-rule="evenodd" clip-rule="evenodd" d="M157.739 133.875C157.836 133.788 157.986 133.796 158.073 133.893L158.838 134.746C158.925 134.843 158.917 134.993 158.82 135.08C158.722 135.167 158.573 135.159 158.486 135.062L157.721 134.21C157.633 134.112 157.641 133.963 157.739 133.875Z" fill="#00160A"/>
<path fill-rule="evenodd" clip-rule="evenodd" d="M158.779 134.739C158.885 134.816 158.909 134.964 158.832 135.07L158.12 136.052C158.043 136.158 157.895 136.181 157.789 136.105C157.684 136.028 157.66 135.88 157.737 135.774L158.449 134.792C158.525 134.686 158.673 134.663 158.779 134.739Z" fill="#00160A"/>
<path fill-rule="evenodd" clip-rule="evenodd" d="M155.032 134.21C155.093 134.094 155.236 134.05 155.352 134.111L156.573 134.756C156.688 134.817 156.732 134.961 156.671 135.076C156.61 135.192 156.467 135.236 156.352 135.175L155.131 134.53C155.015 134.469 154.971 134.326 155.032 134.21Z" fill="#00160A"/>
<path fill-rule="evenodd" clip-rule="evenodd" d="M156.567 134.842C156.651 134.942 156.638 135.091 156.538 135.175L155.28 136.23C155.179 136.314 155.03 136.301 154.946 136.201C154.862 136.101 154.875 135.952 154.975 135.868L156.234 134.812C156.334 134.728 156.483 134.742 156.567 134.842Z" fill="#00160A"/>
<path fill-rule="evenodd" clip-rule="evenodd" d="M167.612 175.472C167.228 175.323 167.334 174.759 167.508 174.388C168.005 173.334 168.501 172.281 168.997 171.227C169.09 171.029 169.185 170.803 169.105 170.599C169.021 170.383 168.778 170.281 168.559 170.202C167.358 169.766 166.158 169.331 164.957 168.896C163.414 171.989 162.622 175.448 162.667 178.898C162.674 179.431 162.715 180.004 163.053 180.419C163.306 180.729 163.69 180.903 164.065 181.05C166.723 182.095 169.685 182.366 172.491 181.82C173.632 181.598 174.884 181.126 175.322 180.058C175.581 179.426 175.495 178.714 175.404 178.038C175.06 175.473 174.716 172.909 174.372 170.345C174.334 170.057 174.286 169.749 174.09 169.534C173.842 169.262 173.435 169.216 173.066 169.193C172.409 169.15 171.734 169.124 171.107 169.325C170.481 169.526 169.903 170 169.764 170.637C169.386 172.371 168.649 174.026 167.612 175.472Z" fill="#E7EAEE"/>
<path fill-rule="evenodd" clip-rule="evenodd" d="M164.868 168.612C166.084 168.405 167.385 168.759 168.323 169.554C168.598 169.787 169.051 169.666 169.288 169.395C169.526 169.124 169.604 168.754 169.674 168.402C170.304 165.23 170.934 162.058 171.563 158.886C171.67 158.349 171.718 157.669 171.249 157.381C171.082 157.279 170.881 157.253 170.687 157.228C168.795 156.993 166.904 156.758 165.013 156.523C164.774 156.494 164.485 156.485 164.347 156.679C164.263 156.798 164.267 156.956 164.276 157.101C164.5 160.949 165.512 164.811 164.868 168.612Z" fill="white"/>
<path fill-rule="evenodd" clip-rule="evenodd" d="M176.419 156.342C175.226 157.085 173.755 157.378 172.365 157.15C172.064 160.523 171.481 163.871 170.626 167.149C170.455 167.804 170.273 168.49 170.434 169.146C171.333 168.49 172.56 168.302 173.617 168.657C173.843 168.734 174.093 168.564 174.191 168.347C174.289 168.131 174.276 167.884 174.268 167.647C174.13 163.802 175.615 160.107 176.419 156.342Z" fill="white"/>
<path fill-rule="evenodd" clip-rule="evenodd" d="M165.916 155.725C167.681 156.174 169.491 156.45 171.312 156.548C171.608 156.563 171.721 156.109 171.527 155.887C171.332 155.664 171.004 155.626 170.707 155.603C169.108 155.481 167.477 155.36 165.916 155.725Z" fill="white"/>
<path fill-rule="evenodd" clip-rule="evenodd" d="M172.478 156.672C173.465 156.62 174.446 156.451 175.393 156.169C175.584 156.112 175.696 155.873 175.616 155.691C174.882 155.697 174.148 155.704 173.415 155.71C173.111 155.713 172.784 155.723 172.542 155.904C172.299 156.086 172.225 156.507 172.478 156.672" fill="white"/>
<path fill-rule="evenodd" clip-rule="evenodd" d="M177.611 120.376C177.312 121.395 177.436 122.551 178.037 123.431C178.637 124.31 179.73 124.866 180.794 124.735C182.42 124.534 183.45 122.983 184.571 121.798C185.178 121.156 185.867 120.59 186.616 120.118C183.819 119.809 180.915 120.58 178.649 122.232C178.386 121.77 178.82 121.209 179.291 120.956C179.762 120.704 180.333 120.554 180.626 120.109C180.847 119.774 180.854 119.343 180.809 118.945C180.654 117.581 179.967 116.284 178.923 115.384C178.659 115.502 178.751 115.885 178.829 116.161C179.233 117.597 178.031 118.944 177.611 120.376Z" fill="#FFB61D"/>
<path fill-rule="evenodd" clip-rule="evenodd" d="M184.208 119.422C184.347 119.39 184.499 119.35 184.583 119.236C184.736 119.029 184.572 118.74 184.389 118.558C183.781 117.955 182.9 117.631 182.042 117.696C181.679 117.723 181.222 118.079 181.467 118.345C181.669 118.565 181.533 118.91 181.422 119.186C181.311 119.463 181.29 119.869 181.574 119.967C181.681 120.004 181.799 119.978 181.909 119.953C182.676 119.776 183.442 119.599 184.208 119.422Z" fill="#FFB61D"/>
</svg>
